<svg width="662" height="703" viewBox="0 0 662 703" fill="none" xmlns="http://www.w3.org/2000/svg">
<g clip-path="url(#clip0_264_565)">
<path d="M354.788 281.586L369.301 281.464C369.434 281.463 369.562 281.409 369.656 281.315C369.751 281.221 369.804 281.093 369.805 280.96C369.805 280.737 369.722 280.613 369.555 280.587C369.512 280.582 369.471 280.565 369.435 280.538C369.4 280.512 369.371 280.477 369.353 280.437C363.324 267.822 357.246 255.23 351.119 242.662C349.559 239.458 347.833 235.458 345.994 231.589C340.939 220.957 335.948 209.51 331.019 197.25C325.6 183.771 321.042 170.009 317.345 155.965C316.27 151.894 315.388 147.418 314.455 143.135C310.966 127.068 309.664 110.558 310.164 94.1322C310.208 92.6245 310.346 90.6565 310.579 88.2284C310.852 85.4248 310.89 82.5648 311.362 79.799C311.503 78.9665 311.604 78.1278 311.663 77.2829C311.777 75.7814 311.94 74.5343 312.154 73.5417C312.698 71.0256 312.988 69.2461 313.026 68.2032C313.069 66.9593 313.446 66.0122 313.488 64.9709C313.557 63.237 313.902 61.2141 314.521 58.9021C314.571 58.7137 314.505 58.3037 314.323 57.6724" stroke="#B24A0C" stroke-width="2"/>
<path d="M276.536 121.305C276.419 121.258 276.294 121.326 276.159 121.508C276.086 121.608 276.047 121.736 276.041 121.89C275.909 124.938 275.645 128.119 275.616 131.04C275.541 139.483 275.678 147.515 276.027 155.136C276.052 155.723 276.253 156.129 276.63 156.352" stroke="#2A83AC" stroke-width="2"/>
<path d="M283.731 206.476C283.631 206.419 283.56 206.416 283.519 206.466C283.475 206.519 283.443 206.581 283.426 206.647C283.409 206.713 283.407 206.781 283.42 206.848C284.039 209.97 284.946 212.978 286.141 215.871" stroke="#2A83AC" stroke-width="2"/>
<path d="M222.218 310.738C222.202 310.619 222.262 310.556 222.397 310.55C222.43 310.55 222.461 310.538 222.485 310.516C222.508 310.493 222.522 310.462 222.522 310.43C222.523 310.397 222.511 310.366 222.488 310.342C222.466 310.319 222.435 310.305 222.402 310.305C220.878 310.192 219.568 310.118 218.474 310.083C217.704 310.058 217.373 309.573 217.479 308.627C217.938 304.556 218.371 301.137 218.776 298.37C219.644 292.411 220.078 289.425 220.078 289.413C222.551 270.471 225.666 251.635 229.423 232.904C231.035 224.856 232.987 216.837 234.968 208.86C238.391 195.089 242.77 181.63 248.104 168.484C250.037 163.719 252.016 158.974 254.04 154.25C254.088 154.146 254.106 154.035 254.097 153.916C254.084 153.771 254.08 153.631 254.083 153.496C254.089 153.348 254.136 153.205 254.22 153.082C254.691 152.422 254.829 151.83 254.634 151.305" stroke="#2A83AC" stroke-width="2"/>
<path d="M29.4834 388.865C28.6409 390.259 28.3046 391.984 28.4743 394.038" stroke="#2A83AC" stroke-width="2"/>
<path d="M28.0504 396.177C27.4798 397.002 27.6543 398.123 27.428 399.099C27.2739 399.749 27.2441 400.404 27.3384 401.063" stroke="#2A83AC" stroke-width="2"/>
<path d="M26.8005 402.557L23.8818 402.632" stroke="#2A83AC" stroke-width="2"/>
<path d="M22.3072 402.703C22.0872 402.549 21.8813 402.469 21.6895 402.463C15.7925 402.306 9.8719 402.39 3.92773 402.717" stroke="#2A83AC" stroke-width="2"/>
<path d="M338.092 370.281C337.79 370.259 337.645 370.611 337.658 371.337C337.661 371.384 337.672 371.426 337.691 371.464C337.798 371.656 337.847 371.668 337.837 371.502" stroke="#2A83AC" stroke-width="2"/>
<path d="M136.521 402.694C136.449 402.533 136.325 402.453 136.149 402.453C120.746 402.444 105.343 402.442 89.9406 402.449C89.4785 402.449 89.2742 402.598 89.3276 402.896" stroke="#2379AA" stroke-width="2"/>
<path d="M187.147 385.708C185.984 390.159 185.131 394.647 184.587 399.174C184.479 400.041 184.172 400.96 184.139 401.893C184.137 401.974 184.118 402.053 184.085 402.127C184.051 402.201 184.003 402.268 183.944 402.324C183.884 402.379 183.814 402.423 183.738 402.451C183.661 402.48 183.58 402.493 183.498 402.491C178.336 402.328 173.099 402.4 167.787 402.708" stroke="#2A83AC" stroke-width="2"/>
<path d="M271.156 402.717C270.917 402.573 270.629 402.496 270.293 402.486C265.015 402.304 259.447 402.376 253.587 402.703" stroke="#2A83AC" stroke-width="2"/>
<path d="M236.505 390.782C235.709 394.181 235.175 397.621 234.902 401.101C234.895 401.176 234.928 401.227 235.001 401.252C235.064 401.274 235.1 401.268 235.109 401.233" stroke="#2A83AC" stroke-width="2"/>
<path d="M234.666 402.684C228.797 402.279 222.925 402.285 217.05 402.703" stroke="#2A83AC" stroke-width="2"/>
<path d="M426.764 428.542C421.417 428.932 416.112 428.971 410.85 428.66C410.75 428.654 410.649 428.669 410.555 428.705C410.46 428.741 410.375 428.797 410.303 428.869C410.232 428.94 410.177 429.026 410.141 429.121C410.105 429.216 410.09 429.318 410.096 429.419C411.067 444.025 411.275 458.527 410.718 472.923C410.544 477.451 409.917 483.016 409.695 488.081C409.625 489.669 409.228 491.351 409.087 493.005C408.883 495.342 408.773 496.573 408.757 496.699C406.764 512.593 403.665 528.663 399.459 544.91C398.624 548.133 397.563 551.285 396.851 554.074C395.443 559.581 393.885 564.421 392.179 568.596C391.298 570.748 390.698 572.565 390.377 574.047C390.179 574.976 389.581 575.522 389.298 576.314C387.836 580.397 386.253 584.435 384.55 588.428C384.509 588.522 384.438 588.569 384.337 588.569C384.281 588.569 384.229 588.552 384.182 588.517C384.128 588.483 384.102 588.497 384.102 588.56C384.099 588.632 384.073 588.684 384.026 588.715C383.897 588.813 383.745 588.825 383.569 588.753" stroke="#B24A0C" stroke-width="2"/>
<path d="M213.057 428.538C214.537 433.429 216.022 438.288 217.512 443.116C217.789 444.008 218.081 444.892 218.389 445.769C222.74 458.151 227.999 470.126 234.166 481.692C235.408 484.019 236.968 486.744 238.848 489.867C243.191 497.08 247.713 504.238 251.81 511.579C256.176 519.403 260.549 527.226 264.927 535.048C265.691 536.414 266.309 537.899 266.988 539.025C271.911 547.186 275.621 554.825 278.12 561.943C280.472 568.634 282.375 575.449 283.83 582.387C285.138 588.635 286.028 593.226 286.499 596.16C286.732 597.621 286.815 599.485 286.749 601.753C286.746 601.907 286.703 602.051 286.622 602.186C286.172 602.921 285.911 603.691 285.839 604.495" stroke="#2A83AC" stroke-width="2"/>
<path d="M299.234 380.774C298.744 382.361 298.989 383.793 299.97 385.072" stroke="#2A83AC" stroke-width="2"/>
<path d="M326.658 701.657C325.847 702.235 325.186 702.526 324.677 702.529" stroke="#2A83AC" stroke-width="2"/>
<path d="M354.788 281.586L369.301 281.464C369.434 281.463 369.562 281.409 369.656 281.315C369.751 281.22 369.804 281.093 369.805 280.96C369.805 280.737 369.722 280.613 369.555 280.587C369.512 280.582 369.471 280.565 369.435 280.538C369.4 280.512 369.371 280.477 369.353 280.437C363.324 267.822 357.246 255.23 351.119 242.662C349.559 239.458 347.833 235.458 345.994 231.589C340.939 220.956 335.948 209.51 331.019 197.25C325.6 183.771 321.042 170.009 317.345 155.965C316.27 151.894 315.388 147.418 314.455 143.135C310.966 127.068 309.664 110.558 310.164 94.1322C310.208 92.6244 310.346 90.6565 310.579 88.2283C310.852 85.4248 310.89 82.5647 311.362 79.7989C311.503 78.9665 311.604 78.1278 311.663 77.2828C311.777 75.7813 311.94 74.5343 312.154 73.5417C312.698 71.0256 312.988 69.2461 313.026 68.2032C313.069 66.9593 313.446 66.0122 313.488 64.9709C313.557 63.237 313.902 61.214 314.521 58.9021C314.571 58.7136 314.505 58.3037 314.323 57.6723C320.405 37.454 329.312 18.0979 340.341 0.160142C340.369 0.112578 340.413 0.0755306 340.464 0.0544705C340.516 0.0334105 340.573 0.0294543 340.627 0.0431862C340.681 0.0569181 340.729 0.0876101 340.764 0.13073C340.799 0.173849 340.819 0.227111 340.822 0.282649C341.042 4.41018 341.155 8.55656 341.161 12.7218C341.161 13.5511 341.543 14.6065 341.595 15.563C341.743 18.3178 341.879 21.0727 342.005 23.8275C342.156 27.0786 342.844 30.914 342.943 34.5138C342.962 35.0698 343.236 35.4986 343.259 35.9934C343.539 41.7417 344.11 47.4634 344.971 53.1584C345.411 56.0766 345.842 58.9979 346.263 61.9224C346.263 61.9381 346.425 62.6574 346.749 64.0804C346.97 65.0557 346.862 66.2054 347.003 67.0724C348.955 78.811 351.404 91.5156 354.349 105.186C354.854 107.528 355.556 109.629 355.924 111.816C356.251 113.779 356.69 115.583 357.24 117.229C357.48 117.955 357.48 118.671 357.631 119.237C358.932 124.09 360.177 128.959 361.365 133.843C361.491 134.362 361.832 135.502 362.388 137.264C362.874 138.795 363.119 140.506 363.553 141.905C367.866 155.918 372.218 168.61 376.609 179.981C377.527 182.359 378.264 184.302 378.821 185.81C379.826 188.53 380.565 190.47 381.037 191.629C388.512 209.914 393.683 222.637 396.549 229.799C402.321 244.203 405.937 254.39 408.818 263.022C409.717 265.723 410.218 267.244 410.322 267.583C411.762 272.257 413.238 276.898 414.75 281.506C414.816 281.71 414.742 281.812 414.528 281.812C394.644 281.775 374.671 282.166 354.788 281.586Z" fill="#BB500C"/>
<path d="M314.323 57.6724C314.505 58.3037 314.571 58.7137 314.521 58.9021C313.902 61.2141 313.557 63.237 313.488 64.9709C313.446 66.0122 313.069 66.9593 313.026 68.2032C312.989 69.2461 312.698 71.0256 312.154 73.5417C311.94 74.5343 311.777 75.7814 311.664 77.2829C311.604 78.1278 311.503 78.9665 311.362 79.799C310.89 82.5648 310.853 85.4248 310.579 88.2284C310.347 90.6565 310.208 92.6245 310.164 94.1322C309.664 110.558 310.966 127.068 314.455 143.135C315.389 147.418 316.27 151.894 317.345 155.965C321.042 170.009 325.6 183.771 331.019 197.25C335.948 209.51 340.94 220.957 345.994 231.589C347.833 235.458 349.559 239.458 351.12 242.662C357.246 255.23 363.324 267.822 369.353 280.437C369.371 280.477 369.4 280.512 369.435 280.538C369.471 280.565 369.512 280.582 369.556 280.587C369.722 280.613 369.805 280.737 369.805 280.96C369.804 281.093 369.751 281.221 369.656 281.315C369.562 281.409 369.434 281.463 369.301 281.464L354.788 281.586C354.238 281.699 353.87 281.552 353.685 281.143C338.417 247.468 323.423 213.298 314.059 177.418C309.639 160.487 306.988 143.281 306.104 125.8C305.139 106.629 306.843 87.7069 311.216 69.0325C312.112 65.2159 313.147 61.4292 314.323 57.6724Z" fill="#A8430B"/>
<path d="M276.536 121.305C276.42 121.258 276.294 121.326 276.159 121.508C276.087 121.608 276.047 121.736 276.041 121.889C275.909 124.938 275.645 128.118 275.617 131.04C275.541 139.483 275.678 147.515 276.027 155.136C276.052 155.723 276.253 156.129 276.63 156.352C276.982 165.964 277.937 175.532 279.492 185.056C279.695 186.286 280.035 187.497 280.195 188.684C280.748 192.821 281.533 196.914 282.548 200.963C283.007 202.788 283.401 204.625 283.731 206.476C283.631 206.419 283.56 206.416 283.519 206.466C283.475 206.519 283.443 206.581 283.426 206.647C283.409 206.713 283.407 206.781 283.42 206.848C284.039 209.97 284.946 212.978 286.141 215.871C290.221 230.537 295.183 244.935 301.026 259.064C301.036 259.083 301.295 259.623 301.804 260.685C302.252 261.613 302.45 262.72 302.823 263.587C309.04 278.096 315.582 292.46 322.447 306.677C322.988 307.801 323.585 308.899 324.239 309.97C324.296 310.062 324.328 310.168 324.33 310.277C324.333 310.385 324.306 310.492 324.253 310.587C324.2 310.682 324.123 310.761 324.029 310.815C323.935 310.87 323.829 310.899 323.72 310.898L222.218 310.738C222.202 310.619 222.262 310.556 222.397 310.55C222.43 310.55 222.461 310.538 222.485 310.516C222.508 310.493 222.522 310.462 222.522 310.43C222.523 310.397 222.511 310.366 222.488 310.342C222.466 310.319 222.435 310.305 222.402 310.305C220.878 310.192 219.568 310.118 218.474 310.083C217.704 310.058 217.373 309.573 217.479 308.627C217.938 304.556 218.371 301.137 218.776 298.37C219.644 292.411 220.078 289.425 220.078 289.413C222.551 270.471 225.666 251.635 229.423 232.904C231.035 224.856 232.987 216.837 234.968 208.86C238.391 195.089 242.77 181.63 248.104 168.484C250.037 163.719 252.016 158.974 254.04 154.25C254.088 154.146 254.106 154.035 254.097 153.916C254.084 153.771 254.08 153.631 254.083 153.496C254.089 153.348 254.136 153.205 254.22 153.082C254.691 152.422 254.829 151.83 254.634 151.305C260.858 140.38 267.901 129.834 275.763 119.665C275.819 119.594 275.896 119.542 275.983 119.517C276.071 119.491 276.164 119.493 276.249 119.523C276.335 119.552 276.41 119.607 276.463 119.681C276.516 119.755 276.545 119.843 276.546 119.934L276.536 121.305Z" fill="#2379AA"/>
<path d="M276.536 121.305C276.635 124.561 276.083 128.029 276.078 130.922C276.075 134.095 276.074 137.266 276.074 140.435C276.074 145.444 276.54 151.023 276.63 156.352C276.253 156.129 276.052 155.723 276.027 155.136C275.678 147.515 275.541 139.483 275.616 131.04C275.645 128.119 275.909 124.938 276.041 121.89C276.047 121.736 276.086 121.608 276.159 121.508C276.294 121.326 276.419 121.258 276.536 121.305Z" fill="#318CAE"/>
<path d="M254.634 151.305C254.829 151.83 254.691 152.422 254.219 153.082C254.136 153.205 254.089 153.348 254.083 153.496C254.079 153.631 254.084 153.771 254.097 153.916C254.106 154.035 254.087 154.146 254.04 154.25C252.016 158.974 250.037 163.719 248.104 168.484C242.769 181.63 238.391 195.089 234.968 208.86C232.987 216.837 231.035 224.856 229.423 232.904C225.666 251.635 222.551 270.471 220.077 289.413C220.077 289.425 219.643 292.411 218.776 298.37C218.37 301.137 217.938 304.556 217.479 308.627C217.372 309.573 217.704 310.058 218.474 310.083C219.568 310.118 220.877 310.192 222.402 310.305C222.434 310.305 222.465 310.319 222.488 310.342C222.51 310.366 222.523 310.397 222.522 310.43C222.521 310.462 222.508 310.493 222.484 310.516C222.461 310.538 222.43 310.55 222.397 310.55C222.262 310.556 222.202 310.619 222.218 310.738L208.247 310.677C208.165 310.677 208.084 310.659 208.009 310.626C207.934 310.593 207.867 310.544 207.812 310.483C207.757 310.422 207.715 310.351 207.69 310.273C207.664 310.195 207.655 310.113 207.662 310.031C209.926 285.722 214.106 261.745 220.205 238.101C228.003 207.88 239.239 178.511 254.634 151.305Z" fill="#318CAE"/>
<path d="M283.731 206.476L286.14 215.871C284.946 212.978 284.039 209.97 283.42 206.848C283.407 206.781 283.409 206.713 283.426 206.647C283.443 206.581 283.475 206.519 283.519 206.466C283.56 206.416 283.63 206.419 283.731 206.476Z" fill="#318CAE"/>
<path d="M413.005 345.893C413.344 344.442 413.462 343.177 413.359 342.1C413.302 341.538 413.203 341.53 413.061 342.076L412.123 345.657C412.104 345.73 412.123 345.789 412.18 345.836C412.227 345.877 412.085 346.103 412.123 346.081C411.862 346.443 411.826 346.733 411.647 347.387C410.803 350.478 410.143 353.319 409.247 356.118C407.952 360.167 406.929 363.927 406.177 367.398C405.97 368.353 405.701 369.215 405.371 369.984C404.249 372.604 403.773 375.606 403.028 378.004C401.349 383.388 399.741 388.791 398.204 394.212C398.189 394.266 398.082 394.85 397.884 395.965C397.742 396.771 397.252 397.553 397.058 398.246C396.706 399.524 396.378 400.743 396.073 401.902C395.991 402.214 395.807 402.49 395.55 402.686C395.294 402.883 394.978 402.99 394.654 402.991L356.089 402.986C355.36 402.986 354.998 402.623 355.004 401.897L355.863 306.064C355.865 305.905 355.93 305.752 356.043 305.64C356.156 305.528 356.308 305.466 356.466 305.466L381.876 305.48C381.972 305.48 382.067 305.499 382.155 305.537C382.243 305.574 382.323 305.629 382.39 305.698C382.456 305.767 382.508 305.849 382.542 305.939C382.576 306.028 382.592 306.124 382.588 306.22C382.016 323.119 381.505 340.052 381.055 357.018C381.032 357.903 380.791 358.935 380.782 359.689C380.707 366.069 380.545 371.742 380.296 376.708C380.226 378.084 380.711 379.399 382.409 379.045C382.937 378.932 383.305 378.554 383.512 377.91C391.125 353.958 398.789 329.975 406.503 305.96C406.543 305.834 406.622 305.725 406.729 305.647C406.836 305.569 406.965 305.527 407.097 305.527L432.61 305.423C432.693 305.423 432.774 305.45 432.84 305.5C432.906 305.551 432.955 305.621 432.978 305.701C433.088 306.097 433.135 306.56 433.12 307.091C432.955 312.515 432.639 317.702 432.577 322.485C432.47 330.649 432.233 338.81 431.865 346.967C431.664 351.437 431.46 360.196 431.252 373.245C431.229 374.724 429.781 379.644 432.86 378.932C433.615 378.759 434.108 378.304 434.341 377.566C441.875 353.636 449.467 329.739 457.115 305.876C457.146 305.777 457.208 305.691 457.292 305.63C457.376 305.569 457.477 305.536 457.581 305.536L483.18 305.452C483.264 305.451 483.347 305.47 483.423 305.507C483.499 305.543 483.566 305.597 483.618 305.664C483.67 305.73 483.706 305.807 483.723 305.89C483.74 305.972 483.738 306.058 483.717 306.14C482.947 309.121 481.955 312.054 480.742 314.941C480.437 315.667 480.123 316.685 479.799 317.994C479.412 319.573 478.597 321.17 478.168 322.428C476.102 328.469 474.169 334.575 471.977 340.569C470.939 343.405 470.303 345.629 468.978 349.238C468.478 350.598 467.854 352.444 467.106 354.775C466.355 357.124 465.528 359.447 464.626 361.743C464.168 362.912 464.093 364.048 463.678 365.169C462.523 368.279 461.325 371.285 460.453 374.494C460.076 375.884 459.378 377.184 458.987 378.47C458.308 380.708 457.459 382.8 456.766 385.105C456.401 386.311 455.986 387.497 455.521 388.662C454.29 391.734 453.55 394.867 452.23 397.916C451.711 399.103 451.466 400.465 450.994 401.789C450.679 402.675 450.24 402.976 449.264 402.976C437.131 402.998 424.999 402.998 412.868 402.976C411.996 402.976 411.138 402.802 410.313 402.647C410.157 402.618 410.017 402.533 409.918 402.407C409.82 402.282 409.771 402.124 409.78 401.963L413.005 345.893Z" fill="#BB500C"/>
<path d="M29.4834 388.865C28.6409 390.259 28.3046 391.984 28.4743 394.038L28.05 396.177C27.4795 397.002 27.6539 398.123 27.4276 399.099C27.2736 399.749 27.2437 400.404 27.338 401.063C27.338 401.607 27.1588 402.105 26.8005 402.557L23.8818 402.632L22.307 402.703C22.087 402.549 21.8811 402.469 21.6893 402.463C15.7923 402.306 9.87171 402.391 3.92754 402.717C3.42774 402.843 3.03639 402.788 2.75348 402.552C2.63403 402.452 2.58688 402.325 2.61203 402.171L19.5675 306.022C19.5952 305.866 19.6771 305.725 19.7987 305.623C19.9203 305.521 20.0738 305.466 20.2324 305.466C34.56 305.541 48.8954 305.566 63.2388 305.541C65.5617 305.535 67.8486 305.766 70.0992 306.234C80.9723 308.481 87.4697 314.729 87.5781 326.443C87.5907 327.866 87.421 329.639 87.0689 331.762C86.2296 336.795 85.2253 341.789 84.3954 346.821C83.1978 354.125 79.5436 360.278 73.7393 364.929C68.5967 369.05 62.563 371.634 55.638 372.68C48.1457 373.806 40.1867 373.433 32.7132 373.264C32.563 373.259 32.4164 373.31 32.3002 373.405C32.1841 373.5 32.1064 373.634 32.0814 373.782L29.4834 388.865ZM61.6498 335.824C62.5598 329.863 58.684 326.659 53.1626 326.655C48.9536 326.652 44.7556 326.642 40.5686 326.627C40.4866 326.626 40.4071 326.655 40.3441 326.708C40.2812 326.76 40.2388 326.833 40.2244 326.914L35.8582 351.844C35.8541 351.869 35.8554 351.894 35.8621 351.918C35.8687 351.943 35.8805 351.965 35.8966 351.984C35.9127 352.003 35.9328 352.019 35.9554 352.03C35.9781 352.041 36.0028 352.046 36.0279 352.047C38.7721 352.094 41.5037 352.105 44.2228 352.08C48.4884 352.036 51.2043 351.871 52.3705 351.585C60.2117 349.658 60.5983 342.727 61.6498 335.824Z" fill="#2379AA"/>
<path d="M338.092 370.281C337.79 370.259 337.645 370.611 337.658 371.337C337.661 371.384 337.672 371.426 337.691 371.464C337.798 371.656 337.847 371.668 337.837 371.502C337.097 380.374 334.329 390.688 327.417 396.974C325.028 399.147 322.313 400.79 319.274 401.902C316.819 402.801 313.763 403.466 310.108 403.9C304.352 404.585 298.744 404.184 293.284 402.698C284.203 400.229 280.77 392.865 281.162 383.814C281.231 382.287 281.449 380.391 281.817 378.126C283.184 369.761 284.502 362.347 285.768 355.882C288.739 340.729 299.22 332.709 314.106 331.913C326.705 331.235 340.874 334.057 340.902 350.204C340.911 353.377 340.748 355.968 340.412 357.979C339.72 362.147 338.947 366.248 338.092 370.281ZM299.235 380.774C298.744 382.361 298.989 383.793 299.97 385.072C301.795 388.766 305.421 389.93 309.32 389.133C312.423 388.502 314.582 386.853 316.553 384.275C317.32 383.267 317.9 382.124 318.293 380.845C318.966 378.646 319.47 376.402 319.807 374.112C320.545 369.061 321.436 364.035 322.48 359.034C322.829 357.352 323.098 352.405 321.919 350.463C320.693 348.456 318.92 347.123 316.431 347.099C314.53 347.08 312.187 346.873 310.49 347.5C308.179 348.353 305.892 350.84 304.473 352.796C303.813 353.71 303.634 354.53 303.431 355.628C302.982 358.034 302.178 362.051 301.022 367.68C300.673 369.391 300.673 371.37 300.281 373.226C299.73 375.846 299.72 378.249 299.235 380.774Z" fill="#2379AA"/>
<path d="M111.833 376.284C110.805 376.473 111.276 376.473 110.437 376.642L109.852 378.73L108.447 386.824C108.434 386.902 108.44 386.981 108.464 387.056C108.489 387.131 108.531 387.198 108.588 387.253C108.645 387.307 108.714 387.347 108.79 387.368C108.866 387.39 108.946 387.392 109.022 387.376C109.227 387.329 109.488 387.454 109.39 387.31C109.612 387.404 109.701 387.333 109.947 387.338C119.782 387.451 129.605 387.443 139.416 387.314C139.475 387.314 139.534 387.327 139.587 387.352C139.641 387.377 139.689 387.414 139.727 387.46C139.764 387.506 139.792 387.56 139.807 387.618C139.821 387.676 139.823 387.736 139.812 387.795L139.251 390.726C138.349 393.1 137.788 395.576 137.568 398.152C137.47 399.311 137.407 400.512 137.379 401.756C137.316 402.274 137.03 402.587 136.521 402.694C136.449 402.534 136.324 402.453 136.148 402.453C120.746 402.444 105.343 402.442 89.9404 402.449C89.4783 402.449 89.274 402.598 89.3275 402.896L88.3703 402.534C88.2131 402.477 88.1503 402.365 88.1817 402.199L100.403 333.006C100.476 332.601 100.718 332.398 101.129 332.398L148.516 332.413C149.145 332.413 149.409 332.724 149.308 333.345L147.04 347.462C146.993 347.757 146.822 347.905 146.526 347.905L116.288 347.891C116.051 347.891 115.821 347.974 115.639 348.127C115.457 348.279 115.335 348.491 115.294 348.725L113.205 360.575C113.199 360.604 113.2 360.633 113.207 360.661C113.214 360.689 113.228 360.716 113.246 360.738C113.264 360.761 113.288 360.779 113.314 360.791C113.34 360.804 113.369 360.81 113.398 360.811L138.652 360.825C138.713 360.824 138.773 360.838 138.828 360.863C138.883 360.888 138.931 360.926 138.97 360.972C139.01 361.018 139.038 361.072 139.054 361.131C139.07 361.189 139.073 361.25 139.062 361.31L136.577 375.478C136.544 375.667 136.445 375.839 136.298 375.963C136.151 376.087 135.964 376.156 135.771 376.157L111.833 376.284Z" fill="#2379AA"/>
<path d="M187.147 385.708C185.984 390.159 185.131 394.647 184.587 399.174C184.478 400.041 184.172 400.96 184.139 401.893C184.137 401.974 184.118 402.054 184.084 402.128C184.051 402.201 184.003 402.268 183.943 402.324C183.884 402.379 183.814 402.423 183.737 402.451C183.661 402.48 183.579 402.494 183.498 402.491C178.336 402.328 173.099 402.4 167.787 402.708C167.432 402.789 167.056 402.711 166.66 402.472C166.534 402.397 166.484 402.288 166.509 402.147L175.958 348.64C176.043 348.162 175.842 347.924 175.355 347.924L152.515 347.877C152.45 347.877 152.386 347.863 152.327 347.836C152.268 347.809 152.216 347.769 152.175 347.72C152.133 347.67 152.102 347.612 152.085 347.55C152.068 347.487 152.065 347.422 152.076 347.358L154.646 332.95C154.709 332.585 154.926 332.403 155.297 332.403L220.2 332.408C220.26 332.408 220.317 332.431 220.36 332.472C220.403 332.513 220.429 332.57 220.431 332.629C220.478 334.538 219.974 336.418 219.686 338.048C219.12 341.258 218.498 344.461 217.819 347.655C217.781 347.834 217.67 347.924 217.484 347.924L194.46 347.872C194.303 347.871 194.151 347.925 194.03 348.026C193.91 348.127 193.828 348.268 193.8 348.423L187.147 385.708Z" fill="#2379AA"/>
<path d="M271.156 402.717C270.917 402.573 270.629 402.496 270.293 402.486C265.015 402.304 259.447 402.376 253.587 402.703C253.147 402.766 252.858 402.581 252.72 402.147C250.114 393.867 247.554 385.645 245.039 377.481C244.972 377.262 244.837 377.071 244.653 376.934C244.47 376.798 244.248 376.723 244.02 376.722L239.154 376.67C239.089 376.669 239.024 376.683 238.965 376.711C238.906 376.739 238.854 376.78 238.813 376.831C238.772 376.881 238.743 376.941 238.729 377.005C238.715 377.068 238.715 377.135 238.73 377.198C239.027 378.442 238.4 379.615 238.263 380.511C237.723 383.966 237.136 387.39 236.505 390.782C235.709 394.181 235.175 397.621 234.901 401.101C234.895 401.176 234.928 401.227 235 401.252C235.063 401.274 235.1 401.268 235.109 401.233L234.666 402.684C228.797 402.279 222.925 402.285 217.05 402.703C216.777 402.804 216.498 402.728 216.216 402.477C216.155 402.424 216.109 402.356 216.082 402.279C216.054 402.202 216.047 402.12 216.06 402.039L228.192 333.119C228.229 332.909 228.339 332.718 228.503 332.581C228.667 332.444 228.874 332.369 229.088 332.37C238.524 332.411 247.859 332.428 257.091 332.422C259.109 332.419 261.251 332.634 263.517 333.067C270.024 334.316 274.886 337.699 275.89 344.64C276.11 346.179 276.005 348.315 275.574 351.048C274.807 355.932 274.214 359.182 273.796 360.796C272.762 364.798 270.845 368.288 268.044 371.266C267.091 372.279 265.79 373.023 264.724 373.947C264.493 374.147 264.325 374.41 264.24 374.705C264.156 374.999 264.158 375.312 264.248 375.606L272.5 402.161C272.553 402.331 272.503 402.461 272.349 402.552C272.006 402.75 271.609 402.805 271.156 402.717ZM241.828 357.23C241.545 359.604 240.909 361.786 240.795 364.17C240.792 364.237 240.803 364.304 240.826 364.367C240.849 364.429 240.885 364.487 240.932 364.535C240.978 364.584 241.034 364.622 241.095 364.649C241.157 364.675 241.223 364.688 241.29 364.688C244.742 364.702 249.773 365.169 252.512 363.977C254.326 363.188 255.609 361.805 256.36 359.826C257.081 357.936 256.968 352.386 256.209 350.789C255.12 348.499 253.201 347.952 250.636 347.966C248.08 347.976 245.512 347.976 242.931 347.966C242.861 347.966 242.793 347.993 242.743 348.042C242.693 348.09 242.664 348.156 242.663 348.225C242.631 349.356 242.617 350.476 242.62 351.585C242.625 353.559 242.059 355.265 241.828 357.23Z" fill="#2379AA"/>
<path d="M506.406 348.211C506.353 349.392 506.186 350.55 505.907 351.684C505.492 353.352 505.234 355.042 505.133 356.754C505.067 357.875 504.459 359.232 504.723 360.565C504.761 360.766 504.883 360.867 505.091 360.867L529.303 360.843C530.032 360.843 530.328 361.2 530.189 361.913L527.488 375.865C527.473 375.939 527.433 376.005 527.374 376.053C527.315 376.101 527.24 376.128 527.162 376.128C519.279 376.11 511.417 376.121 503.577 376.161C503.301 376.165 502.782 376.319 502.021 376.623C501.877 376.683 501.779 376.785 501.729 376.929C501.267 378.239 500.949 379.577 500.777 380.944C500.536 382.847 499.843 384.991 499.89 387.093C499.896 387.272 499.989 387.361 500.168 387.361L530.232 387.347C530.321 387.347 530.408 387.367 530.489 387.404C530.569 387.442 530.641 387.496 530.698 387.564C530.755 387.631 530.797 387.711 530.821 387.796C530.845 387.882 530.85 387.971 530.835 388.059C530.439 390.44 530.116 392.667 529.864 394.74C529.754 395.648 529.51 396.818 529.133 398.25C528.828 399.416 528.618 400.602 528.501 401.808C528.42 402.653 527.978 403.052 527.176 403.005C526.846 402.986 526.669 402.976 526.644 402.976C511.404 402.998 496.039 402.997 480.549 402.972C479.521 402.972 479.097 402.466 479.276 401.454L491.375 332.874C491.402 332.718 491.484 332.577 491.606 332.475C491.727 332.374 491.881 332.318 492.04 332.318L539.615 332.313C539.741 332.314 539.866 332.342 539.98 332.395C540.095 332.448 540.196 332.526 540.278 332.622C540.36 332.718 540.419 332.831 540.453 332.953C540.487 333.074 540.494 333.202 540.473 333.326L538.224 346.962C538.178 347.24 538.035 347.493 537.82 347.675C537.605 347.857 537.332 347.957 537.05 347.957L506.642 347.98C506.491 347.98 506.413 348.057 506.406 348.211Z" fill="#BB500C"/>
<path d="M560.22 387.121C560.361 387.206 560.576 387.25 560.866 387.253C569.312 387.382 577.532 387.404 585.526 387.319C586.359 387.31 586.701 387.715 586.553 388.535C585.831 392.511 585.119 396.301 584.418 399.904C584.191 401.073 583.908 402.034 583.569 402.788C583.541 402.848 583.496 402.9 583.439 402.936C583.382 402.972 583.316 402.991 583.248 402.99L540.591 402.986C539.635 402.986 539.241 402.515 539.407 401.572L551.534 332.879C551.562 332.72 551.645 332.576 551.768 332.471C551.891 332.367 552.047 332.31 552.209 332.309L568.481 332.299C568.593 332.299 568.704 332.324 568.805 332.372C568.907 332.42 568.996 332.489 569.068 332.576C569.139 332.662 569.191 332.763 569.219 332.872C569.247 332.98 569.251 333.094 569.23 333.204C568.756 335.673 568.349 338.18 568.009 340.724C567.761 342.596 567.542 343.999 567.354 344.932C566.615 348.626 565.905 352.328 565.222 356.037C565.01 357.187 565.128 359.227 564.675 360.707C563.841 363.435 563.497 366.337 562.818 369.117C562.591 370.05 562.7 370.936 562.483 371.855C561.761 374.885 561.582 378.159 560.988 380.967C560.608 382.777 560.251 384.605 559.918 386.452C559.895 386.582 559.911 386.716 559.965 386.836C560.019 386.956 560.108 387.055 560.22 387.121Z" fill="#BB500C"/>
<path d="M647.317 385.642C646.578 387.68 645.544 389.581 644.215 391.343C638.399 399.052 630.379 402.925 620.153 402.962C610.956 403 601.721 403.006 592.447 402.981C592.318 402.98 592.19 402.951 592.072 402.896C591.955 402.841 591.851 402.761 591.768 402.662C591.685 402.563 591.625 402.447 591.591 402.322C591.558 402.197 591.553 402.067 591.575 401.94L603.726 333.138C603.82 332.598 604.116 332.326 604.612 332.323C613.159 332.304 621.621 332.306 629.999 332.328C639.764 332.356 648.383 334.217 652.589 343.942C652.978 344.847 653.283 346.323 653.503 348.371C653.829 351.378 653.414 354.478 653.079 357.541C652.928 358.891 652.667 360.427 652.296 362.149C651.435 366.148 650.706 370.171 650.108 374.22C649.624 377.487 649.037 380.435 648.345 383.064C648.119 383.913 647.619 384.808 647.317 385.642ZM617.824 353.399C616.127 362.121 614.976 370.946 613.194 379.639C612.812 381.514 612.576 384.403 611.827 386.801C611.801 386.883 611.795 386.971 611.809 387.056C611.823 387.142 611.857 387.222 611.908 387.292C611.958 387.362 612.025 387.42 612.102 387.459C612.178 387.499 612.263 387.521 612.35 387.522C615.924 387.575 619.606 387.567 623.397 387.498C624.513 387.476 625.785 387.043 627.212 386.198C628.386 385.5 628.957 384.337 629.702 383.225C631.107 381.123 631.635 378.588 632.012 376.152C632.402 373.63 632.647 372.127 632.747 371.643C633.709 366.988 634.338 363.492 634.633 361.155C634.916 358.949 635.176 354.473 634.054 352.235C632.724 349.592 630.135 347.834 627.08 347.99C624.716 348.109 622.37 347.947 620.04 347.505C619.669 347.435 619.265 347.596 618.828 347.985C617.749 348.946 618.088 352.047 617.824 353.399Z" fill="#BB500C"/>
<path d="M338.092 370.281C338.155 370.771 338.07 371.178 337.837 371.502C337.847 371.668 337.798 371.656 337.691 371.464C337.672 371.426 337.661 371.384 337.658 371.337C337.645 370.611 337.79 370.259 338.092 370.281Z" fill="#318CAE"/>
<path d="M299.234 380.774L299.97 385.072C298.989 383.793 298.744 382.361 299.234 380.774Z" fill="#318CAE"/>
<path d="M187.147 385.708L184.271 402.222C184.239 402.405 184.144 402.571 184.001 402.69C183.859 402.81 183.678 402.874 183.493 402.873L167.787 402.708C173.099 402.4 178.336 402.328 183.497 402.491C183.579 402.493 183.661 402.48 183.737 402.451C183.814 402.423 183.884 402.379 183.943 402.324C184.003 402.268 184.051 402.201 184.084 402.127C184.118 402.053 184.136 401.974 184.139 401.893C184.172 400.96 184.478 400.041 184.587 399.174C185.13 394.647 185.984 390.159 187.147 385.708Z" fill="#318CAE"/>
<path d="M29.4834 388.865L28.4743 394.038C28.3046 391.984 28.6409 390.259 29.4834 388.865Z" fill="#318CAE"/>
<path d="M236.505 390.782L235.109 401.233C235.1 401.268 235.064 401.274 235.001 401.252C234.928 401.227 234.895 401.176 234.902 401.101C235.175 397.621 235.709 394.181 236.505 390.782Z" fill="#318CAE"/>
<path d="M28.0504 396.177L27.3384 401.063C27.2441 400.404 27.2739 399.749 27.428 399.099C27.6543 398.123 27.4798 397.002 28.0504 396.177Z" fill="#318CAE"/>
<path d="M22.3072 402.703C22.0714 402.835 21.8263 402.904 21.5716 402.91C15.7281 403.02 9.84676 402.956 3.92773 402.717C9.8719 402.39 15.7925 402.306 21.6895 402.463C21.8813 402.469 22.0872 402.549 22.3072 402.703Z" fill="#318CAE"/>
<path d="M234.666 402.684C228.803 403.083 222.932 403.089 217.05 402.703C222.925 402.285 228.797 402.279 234.666 402.684Z" fill="#318CAE"/>
<path d="M26.8005 402.557C26.0303 403.132 25.0575 403.157 23.8818 402.633L26.8005 402.557Z" fill="#318CAE"/>
<path d="M271.156 402.717C270.983 402.846 270.774 402.913 270.529 402.92C264.924 403.042 259.277 402.97 253.587 402.703C259.447 402.376 265.015 402.304 270.293 402.486C270.629 402.496 270.917 402.573 271.156 402.717Z" fill="#318CAE"/>
<path d="M426.764 428.543C421.417 428.932 416.112 428.971 410.85 428.66C410.75 428.654 410.649 428.669 410.555 428.705C410.46 428.741 410.375 428.797 410.303 428.869C410.232 428.94 410.177 429.026 410.141 429.121C410.105 429.216 410.09 429.318 410.096 429.419C411.067 444.026 411.275 458.527 410.718 472.923C410.544 477.451 409.917 483.016 409.695 488.081C409.625 489.669 409.228 491.351 409.087 493.005C408.883 495.342 408.773 496.573 408.757 496.699C406.764 512.593 403.665 528.663 399.459 544.91C398.624 548.133 397.563 551.285 396.851 554.074C395.443 559.581 393.885 564.421 392.179 568.596C391.298 570.748 390.698 572.565 390.377 574.048C390.179 574.976 389.581 575.522 389.298 576.314C387.836 580.397 386.253 584.435 384.55 588.428C384.509 588.522 384.438 588.569 384.337 588.569C384.281 588.569 384.229 588.552 384.182 588.517C384.128 588.483 384.102 588.497 384.102 588.56C384.099 588.632 384.073 588.684 384.026 588.715C383.897 588.813 383.745 588.825 383.569 588.753C391.798 566.209 397.511 543.052 400.708 519.282C400.873 518.057 400.902 515.748 401.213 514.033C401.389 513.072 401.5 512.376 401.548 511.946C403.547 492.848 403.866 473.722 402.505 454.571C402.297 451.64 401.731 447.371 401.576 443.729C401.557 443.229 401.227 442.805 401.194 442.301C400.92 437.815 400.405 433.443 399.647 429.183C399.632 429.099 399.636 429.012 399.658 428.928C399.68 428.845 399.72 428.768 399.776 428.702C399.831 428.636 399.9 428.583 399.978 428.546C400.056 428.51 400.141 428.491 400.227 428.491L426.764 428.543Z" fill="#A8430B"/>
<path d="M426.764 428.543L439.348 428.514C439.472 428.515 439.594 428.54 439.708 428.59C439.821 428.64 439.923 428.713 440.007 428.804C440.09 428.896 440.154 429.003 440.194 429.12C440.234 429.237 440.25 429.362 440.239 429.485C439.919 432.997 439.659 436.539 439.461 440.11C439.411 440.983 439.262 442.367 439.013 444.261C438.768 446.113 438.759 448.205 438.584 449.84C437.943 455.818 437.368 460.222 436.859 463.052C436.456 465.292 436.161 467.197 435.972 468.767C435.828 469.992 435.64 471.118 435.411 472.146C434.925 474.308 435.081 475.934 434.595 477.588C434.388 478.304 434.281 478.676 434.275 478.704C433.58 482.201 432.885 485.697 432.191 489.193C431.389 493.245 429.96 497.91 429.093 502.339C428.728 504.195 428.265 506.003 427.702 507.762C426.976 510.027 426.322 512.314 425.74 514.622C425.347 516.187 424.797 517.979 424.09 519.999C422.949 523.254 422.388 526.322 420.964 529.813C420.477 531.001 419.999 532.378 419.531 533.946C418.801 536.383 417.891 538.753 416.801 541.056C416.456 541.781 416.527 542.648 416.206 543.355C415.468 544.992 414.792 546.653 414.179 548.34C413.61 549.904 412.956 551.477 412.217 553.057C411.256 555.125 410.303 557.646 409.563 559.347C400.711 579.68 390.242 598.978 378.156 617.241C377.528 618.183 377.052 619.191 376.468 619.992C372.988 624.77 369.635 629.925 366.24 634.439C364.552 636.682 362.864 638.924 361.176 641.167C360.912 641.519 360.703 641.7 360.549 641.709C359.993 641.74 359.847 641.511 360.111 641.021C369.258 624.096 377.077 606.674 383.568 588.753C383.745 588.825 383.897 588.813 384.026 588.715C384.073 588.684 384.098 588.632 384.101 588.56C384.101 588.497 384.128 588.483 384.181 588.518C384.229 588.552 384.28 588.569 384.337 588.569C384.438 588.569 384.508 588.522 384.549 588.428C386.253 584.436 387.836 580.398 389.297 576.314C389.58 575.522 390.179 574.976 390.377 574.048C390.698 572.565 391.298 570.748 392.178 568.596C393.885 564.421 395.443 559.581 396.851 554.074C397.563 551.285 398.624 548.133 399.458 544.91C403.664 528.664 406.764 512.593 408.757 496.699C408.772 496.573 408.882 495.342 409.087 493.005C409.228 491.351 409.624 489.669 409.695 488.081C409.916 483.016 410.544 477.451 410.718 472.923C411.274 458.527 411.067 444.026 410.096 429.419C410.089 429.318 410.105 429.216 410.141 429.121C410.176 429.027 410.232 428.94 410.303 428.869C410.374 428.797 410.46 428.741 410.554 428.705C410.649 428.67 410.749 428.654 410.85 428.66C416.112 428.971 421.417 428.932 426.764 428.543Z" fill="#BB500C"/>
<path d="M213.057 428.538C214.537 433.429 216.022 438.288 217.512 443.116C217.789 444.008 218.081 444.892 218.389 445.769C222.74 458.151 227.999 470.126 234.166 481.692C235.408 484.019 236.968 486.744 238.848 489.867C243.191 497.08 247.713 504.238 251.81 511.579C256.176 519.403 260.549 527.226 264.927 535.048C265.691 536.414 266.309 537.899 266.988 539.025C271.911 547.186 275.621 554.825 278.12 561.943C280.472 568.634 282.375 575.449 283.83 582.387C285.138 588.635 286.028 593.226 286.499 596.16C286.732 597.621 286.815 599.485 286.749 601.753C286.746 601.907 286.703 602.051 286.622 602.186C286.172 602.921 285.911 603.691 285.839 604.495C281.319 583.1 273.512 562.645 262.419 543.129C253.569 527.561 244.964 514.274 235.854 500.053C221.693 477.952 211.083 454.222 204.023 428.863C203.972 428.678 204.043 428.585 204.235 428.585L213.057 428.538Z" fill="#2379AA"/>
<path d="M213.057 428.538L378.038 428.604C378.236 428.604 378.363 428.7 378.42 428.891C381.356 438.984 383.863 450.291 385.941 462.811C386.544 466.454 386.902 469.064 387.228 472.065C389.268 490.812 389.255 508.891 387.19 526.303C386.706 530.402 385.849 535.538 384.62 541.71C381.145 559.158 375.242 576.182 367.519 592.193C366.186 594.96 364.738 597.748 363.176 600.556C349.757 624.693 332.803 645.904 312.314 664.189C311.308 665.084 310.172 665.232 308.905 664.632C308.751 664.556 308.685 664.436 308.707 664.269C311.219 646.446 312.863 629.554 313.639 613.594C313.941 607.355 314.016 599.779 313.865 590.864C313.551 572.369 311.164 554.175 306.703 536.283C298.48 503.295 281.454 474.186 256.917 450.641C256.784 450.512 256.671 450.415 256.577 450.349L254.347 448.12C254.332 448.106 254.313 448.098 254.292 448.097C254.272 448.096 254.252 448.102 254.236 448.115C254.22 448.128 254.209 448.145 254.205 448.165C254.201 448.185 254.205 448.206 254.215 448.224L255.808 450.697C255.896 450.839 255.941 450.993 256.051 450.868H256.188C256 451 256.19 451.239 256.36 451.508C265.162 465.536 272.627 480.236 278.757 495.606C279.851 498.348 281.18 502.174 282.43 505.458C282.933 506.783 283.379 508.114 283.769 509.449C284.872 513.242 286.226 517.383 287.159 520.79C290.664 533.609 293.048 546.639 294.312 559.879C296.534 583.209 295.087 606.3 289.969 629.152C289.592 630.839 289.341 630.82 289.215 629.095C288.646 621.286 287.521 613.086 285.839 604.495C285.911 603.691 286.172 602.921 286.622 602.186C286.703 602.051 286.746 601.907 286.749 601.753C286.815 599.485 286.732 597.621 286.499 596.16C286.028 593.226 285.138 588.635 283.83 582.387C282.375 575.449 280.472 568.634 278.12 561.943C275.621 554.825 271.911 547.186 266.988 539.025C266.309 537.899 265.691 536.414 264.927 535.048C260.549 527.226 256.176 519.403 251.81 511.579C247.713 504.238 243.191 497.08 238.848 489.867C236.968 486.744 235.408 484.019 234.166 481.692C227.999 470.126 222.74 458.151 218.389 445.769C218.081 444.892 217.789 444.008 217.512 443.116C216.022 438.288 214.537 433.429 213.057 428.538Z" fill="#318CAE"/>
<path d="M326.658 701.657C325.847 702.235 325.186 702.526 324.677 702.529L324.941 700.729C324.966 700.556 325.067 700.47 325.243 700.47L327.209 700.484C327.442 700.484 327.487 700.575 327.346 700.757L326.658 701.657Z" fill="#2379AA"/>
<path d="M326.658 701.657L326.002 703H324.635L324.677 702.529C325.186 702.526 325.847 702.235 326.658 701.657Z" fill="#318CAE"/>
</g>
<defs>
<clipPath id="clip0_264_565">
<rect width="662" height="703" fill="white"/>
</clipPath>
</defs>
</svg>
