<svg width="1093" height="526" viewBox="0 0 1093 526" fill="none" xmlns="http://www.w3.org/2000/svg">
<path d="M491.943 516.508C443.733 417.698 395.573 318.868 347.373 220.048C343.786 212.694 341.696 207.254 341.103 203.728C338.703 189.408 347.783 174.268 361.953 169.798C364.966 168.844 369.563 168.364 375.743 168.358C389.996 168.331 404.253 168.311 418.513 168.298C429.453 168.284 436.116 168.168 438.503 167.948C500.403 162.338 528.253 86.7777 484.633 42.5377C469.966 27.6577 451.679 20.2377 429.773 20.2777C372.506 20.391 315.239 20.4377 257.973 20.4177C252.733 20.4177 249.463 19.0677 247.193 14.4977C244.886 9.85767 242.629 5.26103 240.423 0.707694C240.387 0.636073 240.37 0.556499 240.374 0.476524C240.377 0.396548 240.401 0.318805 240.443 0.250693C240.485 0.182582 240.544 0.126363 240.614 0.0873328C240.684 0.0483031 240.763 0.0277825 240.843 0.0277015C302.856 -0.0122985 364.919 -0.00898593 427.033 0.0376807C435.359 0.0443474 441.996 0.4677 446.943 1.3077C495.253 9.5077 528.933 51.4677 525.993 100.888C524.946 118.528 519.169 134.641 508.663 149.228C490.133 174.978 461.683 188.718 429.633 188.698C416.799 188.691 403.966 188.731 391.133 188.818C385.919 188.851 382.066 189.354 379.573 190.328C368.643 194.608 364.153 207.418 369.363 218.128C419.023 320.181 468.723 422.218 518.463 524.238C518.629 524.578 518.523 524.761 518.143 524.788C511.369 525.321 505.666 525.328 501.033 524.808C496.283 524.278 494.113 520.938 491.943 516.508Z" fill="black"/>
<path d="M852.502 264.378C851.692 310.368 816.973 349.318 771.462 355.798C767.049 356.424 760.402 356.738 751.522 356.738C663.689 356.744 575.856 356.748 488.023 356.748C483.769 356.748 480.669 354.821 478.723 350.968C476.376 346.308 474.059 341.651 471.773 336.998C471.566 336.571 471.702 336.358 472.182 336.358C567.422 336.351 662.702 336.331 758.022 336.298C805.212 336.288 840.452 292.778 830.372 246.888C824.052 218.098 800.992 195.108 771.603 189.918C767.589 189.211 761.016 188.841 751.882 188.808C725.182 188.694 698.483 188.694 671.783 188.808C662.663 188.841 655.999 188.628 651.793 188.168C602.533 182.758 565.883 142.818 566.473 92.9077C567.033 45.1977 603.783 5.58772 650.793 0.597722C654.499 0.204388 661.159 0.00772533 670.773 0.00772533C731.119 0.00105867 791.549 0.00440177 852.062 0.0177351C852.125 0.0183421 852.186 0.0346412 852.24 0.0651289C852.294 0.0956166 852.34 0.1393 852.373 0.192143C852.406 0.244986 852.425 0.30528 852.428 0.367436C852.432 0.429592 852.419 0.491607 852.392 0.547734C849.979 5.58107 847.482 10.6344 844.902 15.7077C843.073 19.2977 839.072 20.4077 834.932 20.4077C780.046 20.4411 725.159 20.4411 670.273 20.4077C661.066 20.4011 654.416 20.6944 650.322 21.2877C612.592 26.7677 584.962 59.7277 586.992 98.3877C587.906 115.921 594.216 131.121 605.923 143.988C620.883 160.434 640.083 168.614 663.523 168.528C692.023 168.421 720.522 168.341 749.022 168.288C758.316 168.268 764.972 168.491 768.992 168.958C817.242 174.528 853.362 215.848 852.502 264.378Z" fill="black"/>
<path d="M319.453 300.848C277.633 215.238 235.943 129.558 194.223 43.8979C186.393 27.8279 164.693 27.4079 156.803 43.6379C143.623 70.7779 130.386 97.8779 117.093 124.938C117.062 124.999 117.014 125.05 116.956 125.086C116.898 125.122 116.831 125.141 116.763 125.141C116.694 125.141 116.627 125.122 116.569 125.086C116.511 125.05 116.463 124.999 116.433 124.938C113.599 119.118 110.733 113.248 107.833 107.328C105.133 101.828 107.393 98.2479 110.343 92.1579C121.523 69.1179 132.779 46.1146 144.113 23.1479C147.266 16.7679 149.986 12.3845 152.273 9.99787C164.973 -3.25213 186.693 -3.05212 198.833 10.4179C201.286 13.1379 204.643 18.8679 208.903 27.6079C254.369 120.808 299.803 214.028 345.203 307.268C347.663 312.308 349.139 316.368 349.633 319.448C353.062 340.728 336.312 357.568 315.383 356.898C311.263 356.765 309.186 356.698 309.153 356.698C285.279 356.765 261.406 356.775 237.533 356.728C232.893 356.718 229.143 355.658 227.093 351.588C224.659 346.755 222.233 341.858 219.813 336.898C219.639 336.538 219.756 336.358 220.163 336.358C246.216 336.351 272.309 336.351 298.443 336.358C304.589 336.358 309.013 335.868 311.713 334.888C318.379 332.461 322.536 327.465 324.183 319.898C325.623 313.248 322.953 308.018 319.453 300.848Z" fill="black"/>
<path d="M914.002 31.9478C907.492 33.0578 901.972 36.9978 899.012 43.1078C881.859 78.5011 864.622 113.801 847.302 149.008C847.049 149.534 846.692 149.611 846.232 149.238C841.152 145.118 832.772 141.548 833.102 133.958C833.182 132.238 834.199 129.361 836.152 125.328C853.412 89.6145 870.819 53.9745 888.372 18.4078C896.672 1.57779 916.922 -4.8122 933.022 4.1978C941.832 9.1178 945.042 15.7878 950.112 26.1878C996.412 121.108 1042.69 216.044 1088.93 310.998C1097.61 328.808 1087.57 349.918 1068.86 355.428C1065.89 356.301 1061.78 356.738 1056.54 356.738C991.109 356.744 925.589 356.748 859.982 356.748C859.906 356.747 859.831 356.727 859.764 356.69C859.698 356.652 859.642 356.599 859.602 356.534C859.562 356.469 859.539 356.395 859.536 356.318C859.532 356.242 859.548 356.166 859.582 356.098C861.669 351.824 863.809 347.508 866.002 343.148C868.352 338.468 871.292 336.358 876.432 336.358C929.546 336.344 982.656 336.344 1035.76 336.358C1044.59 336.358 1050.07 336.061 1052.2 335.468C1064.16 332.118 1069.63 318.128 1064.09 306.738C1021.57 219.311 979.006 131.898 936.412 44.4978C932.092 35.6178 923.882 30.2578 914.002 31.9478Z" fill="black"/>
<path d="M3.13238 312.188L66.5624 182.078C69.1049 176.862 73.0621 172.465 77.9828 169.389C82.9035 166.314 88.5896 164.683 94.3924 164.683C100.195 164.683 105.881 166.314 110.802 169.389C115.723 172.465 119.68 176.862 122.222 182.078L185.652 312.188C187.954 316.908 189.017 322.136 188.742 327.38C188.467 332.625 186.862 337.713 184.079 342.166C181.296 346.619 177.426 350.291 172.832 352.837C168.239 355.383 163.074 356.718 157.822 356.718H30.9624C25.7109 356.718 20.5456 355.383 15.9523 352.837C11.3591 350.291 7.48885 346.619 4.70565 342.166C1.92246 337.713 0.317773 332.625 0.0425523 327.38C-0.232669 322.136 0.830611 316.908 3.13238 312.188Z" fill="#991B1E"/>
<path d="M674.763 479.908L621.543 479.918C621.209 479.918 621.043 479.748 621.043 479.408L621.053 470.868C621.053 470.548 621.216 470.388 621.543 470.388H687.493C687.799 470.388 687.946 470.541 687.933 470.848C686.733 496.358 669.333 518.568 643.793 523.158C622.223 527.038 602.063 519.748 589.183 502.398C562.323 466.218 586.403 413.328 632.063 412.188C653.513 411.658 671.653 421.738 682.003 440.958C682.028 441.001 682.041 441.05 682.04 441.1C682.04 441.149 682.026 441.198 682.001 441.241C681.975 441.284 681.939 441.319 681.895 441.343C681.852 441.367 681.802 441.379 681.753 441.378L669.433 441.358C669.293 441.357 669.156 441.324 669.033 441.259C668.909 441.195 668.803 441.102 668.723 440.988C659.663 428.578 646.183 421.838 630.813 422.668C609.263 423.828 591.603 441.398 589.553 462.998C588.626 472.778 590.249 481.754 594.423 489.928C605.423 511.458 631.513 520.598 653.243 509.038C664.209 503.211 671.583 493.768 675.363 480.708C675.389 480.613 675.394 480.514 675.376 480.418C675.358 480.322 675.318 480.232 675.26 480.154C675.202 480.077 675.127 480.014 675.04 479.971C674.954 479.928 674.859 479.907 674.763 479.908Z" fill="#991B1E"/>
<path d="M831.362 524.145C816.811 522.847 803.383 515.71 794.03 504.305C784.678 492.901 780.167 478.162 781.49 463.331C782.814 448.501 789.863 434.794 801.088 425.226C812.312 415.657 826.792 411.011 841.343 412.31C855.893 413.609 869.322 420.745 878.674 432.15C888.027 443.555 892.538 458.294 891.214 473.124C889.891 487.954 882.841 501.661 871.617 511.23C860.392 520.798 845.912 525.444 831.362 524.145ZM836.103 514.156C847.772 514.258 859.005 509.532 867.331 501.019C875.657 492.506 880.395 480.903 880.501 468.762C880.553 462.75 879.467 456.787 877.304 451.214C875.142 445.641 871.945 440.566 867.896 436.279C863.848 431.993 859.027 428.578 853.709 426.231C848.391 423.884 842.68 422.65 836.902 422.599C825.233 422.498 813.999 427.223 805.673 435.736C797.347 444.249 792.61 455.853 792.504 467.994C792.451 474.005 793.538 479.968 795.7 485.542C797.863 491.115 801.06 496.19 805.108 500.476C809.157 504.763 813.978 508.177 819.296 510.524C824.614 512.872 830.325 514.106 836.103 514.156Z" fill="#991B1E"/>
<path d="M919.453 520.028C904.313 511.818 904.303 490.958 904.283 476.308C904.243 455.948 904.239 435.564 904.273 415.158C904.279 414.771 904.473 414.581 904.853 414.588L914.493 414.638C914.538 414.638 914.583 414.646 914.625 414.664C914.667 414.681 914.705 414.706 914.737 414.738C914.768 414.77 914.793 414.807 914.81 414.848C914.826 414.889 914.834 414.933 914.833 414.978C914.739 439.264 914.763 463.528 914.903 487.768C914.933 492.988 915.773 498.228 918.343 502.728C923.673 512.078 933.793 515.848 944.173 513.748C959.573 510.638 962.453 495.018 962.453 481.388C962.459 459.308 962.466 437.224 962.473 415.138C962.473 414.771 962.656 414.588 963.023 414.588L972.513 414.628C972.643 414.628 972.767 414.679 972.859 414.771C972.951 414.863 973.003 414.988 973.003 415.118C972.909 437.944 972.893 460.784 972.953 483.638C973.003 500.638 968.193 518.918 949.593 523.298C940.193 525.518 928.163 524.748 919.453 520.028Z" fill="#991B1E"/>
<path d="M744.213 480.868L769.523 521.628C769.549 521.671 769.563 521.72 769.564 521.771C769.565 521.822 769.553 521.872 769.529 521.917C769.505 521.961 769.469 521.998 769.426 522.025C769.383 522.051 769.333 522.066 769.283 522.068L757.793 522.098C757.406 522.098 757.109 521.931 756.903 521.598L725.673 470.968C725.439 470.594 725.546 470.408 725.992 470.408C735.722 470.398 745.133 471.438 752.483 463.958C763.303 452.948 758.753 431.218 743.923 426.688C741.163 425.848 736.986 425.424 731.393 425.418C724.886 425.404 718.386 425.361 711.893 425.288C711.797 425.288 711.705 425.325 711.638 425.393C711.57 425.461 711.533 425.552 711.533 425.648V521.618C711.533 521.938 711.369 522.098 711.043 522.098L701.653 522.088C701.273 522.081 701.083 521.891 701.083 521.518L701.062 415.148C701.062 414.814 701.229 414.644 701.562 414.638C708.309 414.564 715.029 414.548 721.723 414.588C732.596 414.654 739.259 414.881 741.713 415.268C754.299 417.261 762.879 424.298 767.453 436.378C774.523 455.038 765.333 476.978 744.483 480.288C744.103 480.348 744.013 480.541 744.213 480.868Z" fill="#991B1E"/>
<path d="M1000.75 477.418V521.498C1000.75 521.891 1000.56 522.088 1000.16 522.088L990.542 522.048C990.282 522.048 990.152 521.918 990.152 521.658L990.202 415.158C990.202 414.831 990.366 414.668 990.692 414.668C999.132 414.588 1007.49 414.561 1015.75 414.588C1022.49 414.608 1030.28 415.188 1036.19 417.798C1052.57 425.038 1057.63 445.568 1049.57 460.998C1040.02 479.258 1019.47 477.198 1001.28 476.898C1000.93 476.891 1000.75 477.064 1000.75 477.418ZM1000.75 425.628V465.888C1000.75 465.954 1000.78 466.017 1000.83 466.064C1000.87 466.111 1000.94 466.138 1001 466.138H1021.3C1026.7 466.138 1031.89 464.251 1035.71 460.892C1039.53 457.533 1041.67 452.978 1041.67 448.228V443.288C1041.67 438.538 1039.53 433.982 1035.71 430.623C1031.89 427.265 1026.7 425.378 1021.3 425.378H1001C1000.94 425.378 1000.87 425.404 1000.83 425.451C1000.78 425.498 1000.75 425.561 1000.75 425.628Z" fill="#991B1E"/>
</svg>
