<svg width="1000" height="368" viewBox="0 0 1000 368" fill="none" xmlns="http://www.w3.org/2000/svg">
<path d="M169.275 90.16C172.155 53.66 199.625 30.1 234.355 24.74C234.583 24.7042 234.792 24.5877 234.942 24.4117C235.093 24.2356 235.175 24.0116 235.175 23.78L235.125 1.44C235.125 1.14667 234.975 1 234.675 1H46.2547C46.1247 1 46.0001 1.05055 45.9082 1.14056C45.8163 1.23058 45.7646 1.35268 45.7646 1.47998V248.79C45.7646 248.891 45.8057 248.987 45.8789 249.059C45.952 249.13 46.0512 249.17 46.1546 249.17L234.615 249.16C234.975 249.16 235.155 248.98 235.155 248.62L235.125 91.15C235.125 90.8234 234.961 90.66 234.635 90.66H169.735C169.401 90.66 169.248 90.4933 169.275 90.16Z" stroke="black" stroke-width="2"/>
<path d="M411.964 86.96C408.824 117.16 385.094 139.86 355.414 143.67C316.864 148.62 283.174 117.57 283.434 78.77C283.804 21.98 351.904 -5.53 392.794 33.13C392.933 33.263 393.118 33.3366 393.309 33.3347C393.5 33.3328 393.682 33.2557 393.814 33.12L401.614 25.38C401.666 25.3278 401.707 25.2657 401.735 25.1972C401.763 25.1287 401.776 25.0551 401.775 24.9808C401.775 24.9065 401.759 24.8329 401.73 24.7641C401.7 24.6953 401.658 24.6328 401.604 24.58C375.964 0.240009 336.614 -4.65001 306.504 14.56C261.624 43.2 258.404 106.91 300.254 139.85C334.664 166.94 386.764 159.08 411.514 122.51C421.014 108.477 425.328 92.5567 424.454 74.75C424.434 74.43 424.268 74.27 423.954 74.27H348.224C347.898 74.27 347.734 74.4333 347.734 74.76V85.78C347.734 86.1334 347.911 86.31 348.264 86.31H411.384C411.466 86.3094 411.547 86.3263 411.621 86.3596C411.696 86.3928 411.763 86.4417 411.817 86.503C411.872 86.5643 411.913 86.6367 411.939 86.7154C411.964 86.7942 411.973 86.8775 411.964 86.96Z" stroke="black" stroke-width="2"/>
<path d="M500.165 93.29C513.112 92.43 523.668 87.5934 531.835 78.7801C554.545 54.2201 543.495 12.5801 510.605 4.33008C506.692 3.34342 500.068 2.83673 490.735 2.81006C476.348 2.7634 461.912 2.77343 447.425 2.84009C447.132 2.84009 446.985 2.98676 446.985 3.28009V155.38C446.985 155.8 447.195 156.01 447.615 156.01H458.375C458.802 156.01 459.015 155.793 459.015 155.36L459.025 93.7401C459.025 93.4201 459.182 93.2601 459.495 93.2601H482.795C482.95 93.2598 483.103 93.3013 483.238 93.3803C483.373 93.4593 483.486 93.5731 483.565 93.7101L519.395 155.53C519.575 155.843 519.848 156 520.215 156L535.215 156.01C535.668 156.01 535.782 155.813 535.555 155.42L499.845 93.8901C499.811 93.8312 499.792 93.7645 499.791 93.6964C499.79 93.6283 499.806 93.5611 499.838 93.501C499.87 93.4409 499.917 93.39 499.974 93.3531C500.031 93.3162 500.097 93.2945 500.165 93.29Z" stroke="black" stroke-width="2"/>
<path d="M662.705 115.46L681.405 155.43C681.578 155.817 681.878 156.01 682.305 156.01L694.445 156.02C694.951 156.02 695.095 155.79 694.875 155.33L623.805 4.33997C623.529 3.75016 623.09 3.25137 622.54 2.90229C621.991 2.55321 621.353 2.36834 620.701 2.36939C620.05 2.37044 619.413 2.55736 618.864 2.90821C618.316 3.25906 617.879 3.75922 617.605 4.34992L547.005 155.56C546.983 155.608 546.974 155.662 546.978 155.715C546.982 155.768 546.999 155.819 547.028 155.863C547.057 155.908 547.096 155.945 547.143 155.97C547.189 155.996 547.242 156.01 547.295 156.01H559.415C559.755 156.01 559.998 155.853 560.145 155.54L578.925 115.35C579.045 115.097 579.248 114.97 579.535 114.97H661.925C662.291 114.97 662.551 115.133 662.705 115.46Z" stroke="black" stroke-width="2"/>
<path d="M824.285 2.81C824.202 2.81 824.124 2.84268 824.065 2.90082C824.007 2.95895 823.975 3.03778 823.975 3.12L823.995 136.04C823.993 136.103 823.973 136.165 823.935 136.216C823.898 136.268 823.846 136.306 823.786 136.327C823.726 136.348 823.661 136.349 823.6 136.332C823.539 136.315 823.485 136.279 823.445 136.23L717.685 2.89001C717.656 2.85331 717.62 2.82344 717.578 2.80267C717.537 2.7819 717.491 2.77077 717.445 2.77002L708.075 2.81C708.034 2.81 707.994 2.81804 707.956 2.83362C707.918 2.8492 707.884 2.87203 707.855 2.90082C707.827 2.9296 707.804 2.96373 707.788 3.00134C707.773 3.03895 707.765 3.07929 707.765 3.12V155.71C707.765 155.751 707.773 155.791 707.788 155.829C707.804 155.866 707.827 155.9 707.855 155.929C707.884 155.958 707.918 155.981 707.956 155.996C707.994 156.012 708.034 156.02 708.075 156.02L719.495 156C719.577 156 719.656 155.967 719.714 155.909C719.772 155.851 719.805 155.772 719.805 155.69L719.845 25.61C719.846 25.5466 719.867 25.4851 719.904 25.4338C719.941 25.3825 719.993 25.3438 720.053 25.3231C720.113 25.3024 720.178 25.3006 720.239 25.3179C720.3 25.3353 720.354 25.3709 720.395 25.42L823.895 155.89C823.923 155.927 823.959 155.957 824.001 155.977C824.043 155.998 824.088 156.009 824.135 156.01L835.745 156C835.827 156 835.906 155.967 835.964 155.909C836.022 155.851 836.055 155.772 836.055 155.69L836.045 3.08002C836.045 2.9978 836.012 2.91892 835.954 2.86078C835.896 2.80264 835.817 2.77002 835.735 2.77002L824.285 2.81Z" stroke="black" stroke-width="2"/>
<path d="M865.005 3.29999V155.44C865.005 155.615 865.074 155.783 865.198 155.907C865.322 156.03 865.49 156.1 865.665 156.1H921.225C941.774 156.1 961.481 148.023 976.011 133.647C990.542 119.27 998.705 99.7715 998.705 79.44V79.3C998.705 58.9685 990.542 39.4697 976.011 25.0932C961.481 10.7167 941.774 2.64001 921.225 2.64001H865.665C865.49 2.64001 865.322 2.70954 865.198 2.83331C865.074 2.95709 865.005 3.12494 865.005 3.29999Z" stroke="black" stroke-width="2"/>
<path d="M933.485 198.25C933.482 198.192 933.498 198.134 933.53 198.085C933.563 198.037 933.611 198 933.666 197.981C933.721 197.962 933.781 197.961 933.837 197.979C933.892 197.997 933.941 198.032 933.975 198.08C946.835 214.26 959.681 230.467 972.515 246.7C974.395 249.07 975.865 250.11 978.855 248.95C979.121 248.843 979.255 248.643 979.255 248.35L979.495 189.36C979.495 188.76 979.195 188.457 978.595 188.45L975.015 188.43C974.648 188.43 974.465 188.61 974.465 188.97L974.535 240.74C974.533 240.788 974.517 240.834 974.489 240.873C974.46 240.912 974.421 240.941 974.376 240.957C974.33 240.974 974.281 240.976 974.235 240.964C974.188 240.952 974.146 240.926 974.115 240.89L932.915 188.91C932.796 188.76 932.646 188.638 932.475 188.554C932.304 188.469 932.116 188.423 931.925 188.42L929.225 188.37C928.791 188.363 928.575 188.577 928.575 189.01L928.635 248.52C928.635 248.933 928.841 249.137 929.255 249.13L932.915 249.1C933.268 249.093 933.445 248.917 933.445 248.57L933.485 198.25Z" stroke="#775836" stroke-width="2"/>
<path d="M281.575 189.12L281.675 248.66C281.675 248.827 281.741 248.987 281.859 249.105C281.977 249.224 282.138 249.29 282.305 249.29L304.015 249.25C308.026 249.243 311.997 248.455 315.7 246.929C319.404 245.404 322.767 243.172 325.598 240.36C328.43 237.548 330.674 234.212 332.202 230.541C333.73 226.871 334.513 222.939 334.505 218.97V218.61C334.489 210.597 331.257 202.918 325.521 197.262C319.785 191.606 312.013 188.437 303.915 188.45L282.205 188.49C282.038 188.49 281.877 188.556 281.759 188.674C281.641 188.793 281.575 188.953 281.575 189.12Z" stroke="#775836" stroke-width="2"/>
<path d="M431.175 193.9C431.175 193.783 431.221 193.671 431.304 193.589C431.386 193.506 431.498 193.46 431.615 193.46L463.575 193.44C463.632 193.44 463.69 193.429 463.743 193.406C463.796 193.384 463.845 193.352 463.886 193.311C463.927 193.27 463.959 193.222 463.981 193.168C464.003 193.115 464.015 193.058 464.015 193L464.005 188.91C464.005 188.793 463.958 188.681 463.876 188.599C463.793 188.516 463.681 188.47 463.565 188.47H426.765C426.648 188.47 426.536 188.516 426.454 188.599C426.371 188.681 426.325 188.793 426.325 188.91L426.355 248.78C426.355 248.897 426.401 249.009 426.484 249.091C426.566 249.174 426.678 249.22 426.795 249.22L463.535 249.24C463.651 249.24 463.763 249.194 463.846 249.111C463.928 249.029 463.975 248.917 463.975 248.8L464.025 244.71C464.025 244.652 464.013 244.595 463.991 244.542C463.969 244.488 463.937 244.44 463.896 244.399C463.855 244.358 463.806 244.326 463.753 244.303C463.7 244.281 463.642 244.27 463.585 244.27L431.605 244.3C431.488 244.3 431.376 244.254 431.294 244.171C431.211 244.089 431.165 243.977 431.165 243.86L431.185 220.98C431.185 220.863 431.231 220.751 431.314 220.669C431.396 220.586 431.508 220.54 431.625 220.54L461.055 220.66C461.114 220.661 461.173 220.651 461.229 220.629C461.284 220.606 461.334 220.573 461.376 220.531C461.418 220.489 461.451 220.439 461.473 220.384C461.495 220.329 461.506 220.269 461.505 220.21L461.455 216.09C461.455 216.032 461.443 215.975 461.421 215.922C461.399 215.868 461.367 215.82 461.326 215.779C461.285 215.738 461.236 215.706 461.183 215.683C461.13 215.661 461.072 215.65 461.015 215.65L431.625 215.68C431.508 215.68 431.396 215.634 431.314 215.551C431.231 215.469 431.185 215.357 431.185 215.24L431.175 193.9Z" stroke="#775836" stroke-width="2"/>
<path d="M591.105 203.77C590.285 190.11 572.375 186.03 562.135 190.09C548.615 195.44 546.485 212.12 560.525 218.91C563.518 220.357 566.695 221.197 570.055 221.43C573.815 221.683 576.071 221.93 576.825 222.17C581.395 223.62 585.645 227.04 586.245 231.97C587.285 240.4 576.455 244.65 569.515 244.24C562.435 243.813 557.788 240.38 555.575 233.94C555.475 233.64 555.265 233.49 554.945 233.49L551.505 233.46C551.158 233.46 551.001 233.63 551.035 233.97C551.488 238.69 553.331 242.187 556.565 244.46C565.931 251.04 575.231 251.177 584.465 244.87C586.411 243.537 587.871 242.083 588.845 240.51C595.505 229.75 586.905 219.03 575.975 216.92C570.915 215.94 564.095 217.14 559.225 212.23C555.735 208.73 554.475 203.61 557.515 199.5C563.405 191.56 577.425 191.87 584.055 198.67C585.425 200.08 585.885 202.06 586.305 203.95C586.371 204.25 586.558 204.397 586.865 204.39L590.625 204.3C590.965 204.293 591.125 204.117 591.105 203.77Z" stroke="#775836" stroke-width="2"/>
<path d="M687.515 188.93C687.515 188.8 687.463 188.675 687.371 188.583C687.279 188.492 687.155 188.44 687.025 188.44H683.165C683.035 188.44 682.91 188.492 682.818 188.583C682.726 188.675 682.675 188.8 682.675 188.93V248.69C682.675 248.82 682.726 248.945 682.818 249.036C682.91 249.128 683.035 249.18 683.165 249.18H687.025C687.155 249.18 687.279 249.128 687.371 249.036C687.463 248.945 687.515 248.82 687.515 248.69V188.93Z" stroke="#775836" stroke-width="2"/>
<path d="M833.995 222.3C832.155 232.207 827.025 238.873 818.605 242.3C809.635 245.95 799.285 244.7 792.055 238.17C786.881 233.51 784.011 228.2 783.445 222.24C781.125 198.08 807.845 184.55 826.215 200.37C826.501 200.617 826.781 200.61 827.055 200.35L829.805 197.8C829.856 197.752 829.897 197.694 829.925 197.629C829.953 197.564 829.967 197.494 829.967 197.423C829.967 197.352 829.953 197.281 829.925 197.216C829.897 197.15 829.856 197.09 829.805 197.04C817.255 185.14 796.795 185.83 785.805 198.59C772.245 214.31 777.285 238.42 796.665 246.86C816.985 255.72 840.385 239.78 838.915 217.2C838.895 216.913 838.741 216.77 838.455 216.77L809.185 216.76C808.818 216.76 808.631 216.94 808.625 217.3L808.515 221.07C808.508 221.437 808.688 221.62 809.055 221.62L833.475 221.67C833.553 221.67 833.63 221.687 833.7 221.721C833.771 221.754 833.833 221.802 833.883 221.863C833.933 221.923 833.968 221.993 833.988 222.069C834.007 222.144 834.009 222.223 833.995 222.3Z" stroke="#775836" stroke-width="2"/>
<path d="M152.594 112.42L152.824 91.3C152.831 90.8933 153.034 90.69 153.434 90.69L164.274 90.65C164.608 90.65 164.788 90.4834 164.814 90.15C167.284 56.69 189.104 33.14 220.444 23.67C220.508 23.6523 220.563 23.612 220.599 23.5566C220.634 23.5013 220.649 23.4348 220.639 23.3696C220.629 23.3044 220.596 23.2451 220.545 23.2028C220.495 23.1605 220.43 23.1382 220.364 23.14L68.5744 23.13C68.2211 23.13 68.0444 23.3066 68.0444 23.66L68.0544 226.01C68.0544 226.262 68.1545 226.504 68.3327 226.682C68.5108 226.86 68.7525 226.96 69.0044 226.96H212.344C212.724 226.96 212.914 226.77 212.914 226.39V113.59C212.914 113.197 212.718 113 212.324 113H153.164C152.778 113 152.588 112.807 152.594 112.42Z" stroke="black" stroke-width="2"/>
<path d="M459.005 14.9699V80.5499C459.005 80.6208 459.019 80.6911 459.046 80.7566C459.073 80.8221 459.113 80.8816 459.163 80.9318C459.213 80.9819 459.273 81.0217 459.338 81.0488C459.404 81.076 459.474 81.09 459.545 81.09H497.855C506.79 81.09 515.359 77.5858 521.677 71.3483C527.995 65.1109 531.545 56.6511 531.545 47.83V47.6899C531.545 38.8688 527.995 30.409 521.677 24.1716C515.359 17.9341 506.79 14.4299 497.855 14.4299H459.545C459.402 14.4299 459.264 14.4868 459.163 14.5881C459.062 14.6893 459.005 14.8267 459.005 14.9699Z" stroke="black" stroke-width="2"/>
<path d="M585.054 102.44C585.033 102.488 585.024 102.542 585.028 102.595C585.032 102.648 585.049 102.699 585.078 102.743C585.107 102.788 585.146 102.825 585.193 102.85C585.239 102.876 585.291 102.89 585.344 102.89H656.244C656.298 102.89 656.35 102.876 656.396 102.85C656.443 102.825 656.482 102.788 656.511 102.743C656.54 102.699 656.557 102.648 656.561 102.595C656.565 102.542 656.556 102.488 656.534 102.44L621.084 26.5499C621.059 26.4947 621.018 26.4481 620.966 26.4153C620.915 26.3826 620.855 26.3652 620.794 26.3652C620.734 26.3652 620.674 26.3826 620.623 26.4153C620.571 26.4481 620.53 26.4947 620.504 26.5499L585.054 102.44Z" stroke="black" stroke-width="2"/>
<path d="M876.814 15.68L877.255 143.34C877.255 143.452 877.277 143.564 877.32 143.668C877.364 143.771 877.427 143.866 877.507 143.945C877.587 144.024 877.682 144.086 877.786 144.128C877.89 144.17 878.002 144.191 878.115 144.19L921.505 144.04C938.823 143.978 955.408 137.113 967.61 124.953C979.813 112.793 986.635 96.3353 986.574 79.2V79.06C986.545 70.5751 984.826 62.1792 981.517 54.3517C978.207 46.5243 973.372 39.4185 967.287 33.4402C961.202 27.462 953.986 22.7282 946.052 19.5093C938.118 16.2904 929.62 14.6494 921.045 14.68L877.655 14.83C877.431 14.8326 877.217 14.9233 877.06 15.0825C876.903 15.2416 876.814 15.4563 876.814 15.68Z" stroke="black" stroke-width="2"/>
<path d="M286.525 194.09L286.445 243.61C286.445 243.705 286.463 243.798 286.5 243.886C286.536 243.973 286.589 244.052 286.656 244.119C286.723 244.186 286.802 244.239 286.889 244.275C286.977 244.311 287.07 244.33 287.165 244.33L303.865 244.36C310.685 244.371 317.229 241.711 322.06 236.964C326.891 232.218 329.612 225.774 329.625 219.05V218.81C329.631 215.479 328.972 212.179 327.685 209.099C326.398 206.019 324.508 203.219 322.123 200.86C319.739 198.5 316.906 196.627 313.787 195.347C310.667 194.067 307.323 193.405 303.945 193.4L287.245 193.37C287.054 193.37 286.871 193.446 286.736 193.581C286.601 193.716 286.525 193.899 286.525 194.09Z" stroke="#775836" stroke-width="2"/>
<path d="M169.735 90.66H234.635C234.961 90.66 235.125 90.8234 235.125 91.15L235.155 248.62C235.155 248.98 234.975 249.16 234.615 249.16L46.1546 249.17C46.0512 249.17 45.952 249.13 45.8789 249.059C45.8057 248.987 45.7646 248.891 45.7646 248.79V1.47998C45.7646 1.35268 45.8163 1.23058 45.9082 1.14056C46.0001 1.05055 46.1247 1 46.2547 1H234.675C234.975 1 235.125 1.14667 235.125 1.44L235.175 23.78C235.175 24.0116 235.093 24.2356 234.942 24.4117C234.792 24.5877 234.583 24.7042 234.355 24.74C199.625 30.1 172.155 53.66 169.275 90.16C169.248 90.4933 169.401 90.66 169.735 90.66ZM152.595 112.42L152.825 91.3C152.831 90.8933 153.035 90.69 153.435 90.69L164.275 90.65C164.608 90.65 164.788 90.4834 164.815 90.15C167.285 56.69 189.105 33.14 220.445 23.67C220.508 23.6523 220.563 23.612 220.599 23.5566C220.635 23.5013 220.649 23.4348 220.639 23.3696C220.629 23.3044 220.596 23.2451 220.545 23.2028C220.495 23.1605 220.431 23.1382 220.365 23.14L68.5746 23.13C68.2213 23.13 68.0446 23.3066 68.0446 23.66L68.0547 226.01C68.0547 226.262 68.1547 226.504 68.3329 226.682C68.511 226.86 68.7527 226.96 69.0046 226.96H212.345C212.725 226.96 212.915 226.77 212.915 226.39V113.59C212.915 113.197 212.718 113 212.325 113H153.165C152.778 113 152.588 112.807 152.595 112.42Z" fill="black"/>
<path d="M411.385 86.3101H348.265C347.912 86.3101 347.735 86.1335 347.735 85.7801V74.7601C347.735 74.4335 347.899 74.2701 348.225 74.2701H423.955C424.269 74.2701 424.435 74.4301 424.455 74.7501C425.329 92.5568 421.015 108.477 411.515 122.51C386.765 159.08 334.665 166.94 300.255 139.85C258.405 106.91 261.625 43.2001 306.505 14.5601C336.615 -4.64989 375.965 0.240131 401.605 24.5801C401.659 24.6329 401.701 24.6954 401.731 24.7642C401.76 24.833 401.775 24.9066 401.776 24.9809C401.777 25.0553 401.764 25.1288 401.736 25.1973C401.708 25.2658 401.667 25.3279 401.615 25.3801L393.815 33.1201C393.683 33.2558 393.501 33.333 393.31 33.3348C393.119 33.3367 392.934 33.2631 392.795 33.1301C351.905 -5.52988 283.805 21.9801 283.435 78.7701C283.175 117.57 316.865 148.62 355.415 143.67C385.095 139.86 408.825 117.16 411.965 86.9601C411.974 86.8777 411.965 86.7943 411.94 86.7156C411.914 86.6368 411.873 86.5644 411.818 86.5031C411.764 86.4418 411.697 86.3929 411.622 86.3597C411.548 86.3264 411.467 86.3095 411.385 86.3101Z" fill="black"/>
<path d="M500.164 93.29C500.096 93.2945 500.031 93.3162 499.974 93.3531C499.916 93.39 499.869 93.4409 499.837 93.501C499.805 93.5611 499.789 93.6283 499.79 93.6964C499.792 93.7645 499.81 93.8312 499.844 93.8901L535.554 155.42C535.781 155.813 535.668 156.01 535.214 156.01L520.214 156C519.848 156 519.574 155.843 519.394 155.53L483.564 93.7101C483.485 93.5731 483.373 93.4593 483.237 93.3803C483.102 93.3013 482.949 93.2598 482.794 93.2601H459.494C459.181 93.2601 459.024 93.4201 459.024 93.7401L459.014 155.36C459.014 155.793 458.801 156.01 458.374 156.01H447.614C447.194 156.01 446.984 155.8 446.984 155.38V3.28009C446.984 2.98676 447.131 2.84009 447.424 2.84009C461.911 2.77343 476.348 2.7634 490.734 2.81006C500.068 2.83673 506.691 3.34342 510.604 4.33008C543.494 12.5801 554.544 54.2201 531.834 78.7801C523.668 87.5934 513.111 92.43 500.164 93.29ZM459.004 14.97V80.5501C459.004 80.621 459.018 80.6912 459.045 80.7567C459.073 80.8222 459.112 80.8818 459.163 80.9319C459.213 80.982 459.272 81.0218 459.338 81.049C459.403 81.0761 459.473 81.0901 459.544 81.0901H497.854C506.79 81.0901 515.359 77.5859 521.677 71.3485C527.995 65.111 531.544 56.6512 531.544 47.8301V47.6901C531.544 38.869 527.995 30.4092 521.677 24.1717C515.359 17.9342 506.79 14.4301 497.854 14.4301H459.544C459.401 14.4301 459.264 14.4869 459.163 14.5882C459.061 14.6895 459.004 14.8268 459.004 14.97Z" fill="black"/>
<path d="M661.924 114.97H579.534C579.247 114.97 579.044 115.097 578.924 115.35L560.144 155.54C559.997 155.853 559.754 156.01 559.414 156.01H547.294C547.241 156.01 547.189 155.996 547.142 155.97C547.096 155.945 547.056 155.908 547.028 155.863C546.999 155.819 546.982 155.768 546.978 155.715C546.973 155.662 546.983 155.608 547.004 155.56L617.604 4.34992C617.878 3.75922 618.315 3.25906 618.864 2.90821C619.412 2.55736 620.05 2.37044 620.701 2.36939C621.352 2.36834 621.99 2.55321 622.54 2.90229C623.09 3.25137 623.528 3.75016 623.804 4.33997L694.874 155.33C695.094 155.79 694.951 156.02 694.444 156.02L682.304 156.01C681.878 156.01 681.577 155.817 681.404 155.43L662.704 115.46C662.551 115.133 662.291 114.97 661.924 114.97ZM585.054 102.44C585.033 102.488 585.023 102.542 585.027 102.595C585.032 102.648 585.049 102.699 585.078 102.743C585.106 102.788 585.146 102.825 585.192 102.85C585.239 102.876 585.291 102.89 585.344 102.89H656.244C656.297 102.89 656.349 102.876 656.396 102.85C656.443 102.825 656.482 102.788 656.511 102.743C656.54 102.699 656.557 102.648 656.561 102.595C656.565 102.542 656.556 102.488 656.534 102.44L621.084 26.5499C621.058 26.4947 621.017 26.4481 620.966 26.4153C620.915 26.3826 620.855 26.3652 620.794 26.3652C620.733 26.3652 620.674 26.3826 620.622 26.4153C620.571 26.4481 620.53 26.4947 620.504 26.5499L585.054 102.44Z" fill="black"/>
<path d="M824.286 2.81L835.736 2.77002C835.818 2.77002 835.897 2.80264 835.955 2.86078C836.013 2.91892 836.046 2.9978 836.046 3.08002L836.056 155.69C836.056 155.772 836.023 155.851 835.965 155.909C835.907 155.967 835.828 156 835.746 156L824.136 156.01C824.089 156.009 824.043 155.998 824.002 155.977C823.96 155.957 823.924 155.927 823.896 155.89L720.396 25.42C720.355 25.3709 720.301 25.3353 720.24 25.3179C720.179 25.3006 720.114 25.3024 720.054 25.3231C719.994 25.3438 719.942 25.3825 719.905 25.4338C719.868 25.4851 719.847 25.5466 719.846 25.61L719.806 155.69C719.806 155.772 719.773 155.851 719.715 155.909C719.657 155.967 719.578 156 719.496 156L708.076 156.02C708.035 156.02 707.995 156.012 707.957 155.996C707.919 155.981 707.885 155.958 707.856 155.929C707.828 155.9 707.805 155.866 707.789 155.829C707.774 155.791 707.766 155.751 707.766 155.71V3.12C707.766 3.07929 707.774 3.03895 707.789 3.00134C707.805 2.96373 707.828 2.9296 707.856 2.90082C707.885 2.87203 707.919 2.8492 707.957 2.83362C707.995 2.81804 708.035 2.81 708.076 2.81L717.446 2.77002C717.492 2.77077 717.538 2.7819 717.579 2.80267C717.621 2.82344 717.657 2.85331 717.686 2.89001L823.446 136.23C823.486 136.279 823.54 136.315 823.601 136.332C823.662 136.349 823.727 136.348 823.787 136.327C823.847 136.306 823.899 136.268 823.936 136.216C823.974 136.165 823.994 136.103 823.996 136.04L823.976 3.12C823.976 3.03778 824.008 2.95895 824.066 2.90082C824.125 2.84268 824.203 2.81 824.286 2.81Z" fill="black"/>
<path d="M865.005 3.30011C865.005 3.12507 865.074 2.95721 865.198 2.83344C865.322 2.70966 865.49 2.64014 865.665 2.64014H921.225C941.774 2.64014 961.481 10.7168 976.011 25.0933C990.542 39.4699 998.705 58.9686 998.705 79.3001V79.4401C998.705 99.7716 990.542 119.27 976.011 133.647C961.481 148.023 941.774 156.1 921.225 156.1H865.665C865.49 156.1 865.322 156.031 865.198 155.907C865.074 155.783 865.005 155.615 865.005 155.44V3.30011ZM876.815 15.6801L877.255 143.34C877.255 143.453 877.277 143.564 877.321 143.668C877.364 143.772 877.427 143.866 877.507 143.945C877.587 144.024 877.682 144.086 877.786 144.128C877.891 144.17 878.002 144.191 878.115 144.19L921.505 144.04C938.823 143.979 955.408 137.113 967.611 124.953C979.814 112.793 986.635 96.3354 986.575 79.2001V79.0601C986.545 70.5752 984.826 62.1793 981.517 54.3519C978.208 46.5244 973.372 39.4186 967.287 33.4404C961.202 27.4621 953.987 22.7284 946.052 19.5095C938.118 16.2906 929.62 14.6495 921.045 14.6801L877.655 14.8301C877.431 14.8328 877.218 14.9235 877.06 15.0826C876.903 15.2417 876.815 15.4564 876.815 15.6801Z" fill="black"/>
<path d="M933.484 198.25L933.444 248.57C933.444 248.917 933.268 249.093 932.914 249.1L929.254 249.13C928.841 249.137 928.634 248.933 928.634 248.52L928.574 189.01C928.574 188.577 928.791 188.363 929.224 188.37L931.924 188.42C932.115 188.423 932.303 188.469 932.474 188.554C932.646 188.638 932.796 188.76 932.914 188.91L974.114 240.89C974.146 240.926 974.188 240.952 974.234 240.964C974.281 240.976 974.33 240.974 974.375 240.957C974.42 240.941 974.46 240.912 974.488 240.873C974.516 240.834 974.533 240.788 974.534 240.74L974.464 188.97C974.464 188.61 974.648 188.43 975.014 188.43L978.594 188.45C979.194 188.457 979.494 188.76 979.494 189.36L979.254 248.35C979.254 248.643 979.121 248.843 978.854 248.95C975.864 250.11 974.394 249.07 972.514 246.7C959.681 230.467 946.834 214.26 933.974 198.08C933.94 198.032 933.892 197.997 933.836 197.979C933.781 197.961 933.721 197.962 933.665 197.981C933.61 198 933.563 198.037 933.53 198.085C933.497 198.134 933.481 198.192 933.484 198.25Z" fill="#EAAD67"/>
<path d="M281.574 189.12C281.574 188.953 281.641 188.793 281.759 188.674C281.877 188.556 282.037 188.49 282.204 188.49L303.914 188.45C312.012 188.437 319.784 191.606 325.521 197.262C331.257 202.918 334.488 210.597 334.504 218.61V218.97C334.512 222.939 333.73 226.871 332.201 230.541C330.673 234.212 328.429 237.548 325.598 240.36C322.767 243.172 319.403 245.404 315.7 246.929C311.996 248.455 308.026 249.243 304.014 249.25L282.304 249.29C282.137 249.29 281.977 249.224 281.859 249.105C281.741 248.987 281.674 248.827 281.674 248.66L281.574 189.12ZM286.524 194.09L286.444 243.61C286.444 243.705 286.463 243.798 286.499 243.886C286.535 243.973 286.588 244.052 286.655 244.119C286.722 244.186 286.801 244.239 286.889 244.275C286.976 244.311 287.07 244.33 287.164 244.33L303.864 244.36C310.684 244.371 317.229 241.711 322.059 236.964C326.89 232.218 329.611 225.774 329.624 219.05V218.81C329.631 215.479 328.972 212.179 327.684 209.099C326.397 206.019 324.507 203.219 322.123 200.86C319.738 198.5 316.905 196.627 313.786 195.347C310.667 194.067 307.323 193.405 303.944 193.4L287.244 193.37C287.053 193.37 286.87 193.446 286.735 193.581C286.6 193.716 286.524 193.899 286.524 194.09Z" fill="#EAAD67"/>
<path d="M431.174 193.9L431.184 215.24C431.184 215.357 431.231 215.469 431.313 215.551C431.396 215.634 431.508 215.68 431.624 215.68L461.014 215.65C461.072 215.65 461.129 215.661 461.183 215.683C461.236 215.706 461.284 215.738 461.325 215.779C461.366 215.82 461.399 215.868 461.421 215.922C461.443 215.975 461.454 216.032 461.454 216.09L461.504 220.21C461.506 220.269 461.495 220.329 461.473 220.384C461.451 220.439 461.417 220.489 461.375 220.531C461.333 220.573 461.283 220.606 461.228 220.629C461.173 220.651 461.114 220.661 461.054 220.66L431.624 220.54C431.508 220.54 431.396 220.586 431.313 220.669C431.231 220.751 431.184 220.863 431.184 220.98L431.164 243.86C431.164 243.977 431.211 244.089 431.293 244.171C431.376 244.254 431.487 244.3 431.604 244.3L463.584 244.27C463.642 244.27 463.699 244.281 463.753 244.303C463.806 244.326 463.854 244.358 463.895 244.399C463.936 244.44 463.969 244.488 463.991 244.542C464.013 244.595 464.024 244.652 464.024 244.71L463.974 248.8C463.974 248.917 463.928 249.029 463.845 249.111C463.763 249.194 463.651 249.24 463.534 249.24L426.794 249.22C426.677 249.22 426.566 249.174 426.483 249.091C426.401 249.009 426.354 248.897 426.354 248.78L426.324 188.91C426.324 188.793 426.371 188.681 426.453 188.599C426.536 188.516 426.648 188.47 426.764 188.47H463.564C463.681 188.47 463.793 188.516 463.875 188.599C463.958 188.681 464.004 188.793 464.004 188.91L464.014 193C464.014 193.058 464.003 193.115 463.981 193.168C463.959 193.222 463.926 193.27 463.885 193.311C463.844 193.352 463.796 193.384 463.743 193.406C463.689 193.429 463.632 193.44 463.574 193.44L431.614 193.46C431.498 193.46 431.386 193.506 431.303 193.589C431.221 193.671 431.174 193.783 431.174 193.9Z" fill="#EAAD67"/>
<path d="M562.135 190.09C572.375 186.03 590.285 190.11 591.105 203.77C591.125 204.117 590.965 204.293 590.625 204.3L586.865 204.39C586.558 204.397 586.371 204.25 586.305 203.95C585.885 202.06 585.425 200.08 584.055 198.67C577.425 191.87 563.405 191.56 557.515 199.5C554.475 203.61 555.735 208.73 559.225 212.23C564.095 217.14 570.915 215.94 575.975 216.92C586.905 219.03 595.505 229.75 588.845 240.51C587.871 242.083 586.411 243.537 584.465 244.87C575.231 251.177 565.931 251.04 556.565 244.46C553.331 242.187 551.488 238.69 551.035 233.97C551.001 233.63 551.158 233.46 551.505 233.46L554.945 233.49C555.265 233.49 555.475 233.64 555.575 233.94C557.788 240.38 562.435 243.813 569.515 244.24C576.455 244.65 587.285 240.4 586.245 231.97C585.645 227.04 581.395 223.62 576.825 222.17C576.071 221.93 573.815 221.683 570.055 221.43C566.695 221.197 563.518 220.357 560.525 218.91C546.485 212.12 548.615 195.44 562.135 190.09Z" fill="#EAAD67"/>
<path d="M687.025 188.44H683.165C682.894 188.44 682.675 188.659 682.675 188.93V248.69C682.675 248.961 682.894 249.18 683.165 249.18H687.025C687.295 249.18 687.515 248.961 687.515 248.69V188.93C687.515 188.659 687.295 188.44 687.025 188.44Z" fill="#EAAD67"/>
<path d="M833.475 221.67L809.055 221.62C808.688 221.62 808.508 221.437 808.515 221.07L808.625 217.3C808.631 216.94 808.818 216.76 809.185 216.76L838.455 216.77C838.741 216.77 838.895 216.913 838.915 217.2C840.385 239.78 816.985 255.72 796.665 246.86C777.285 238.42 772.245 214.31 785.805 198.59C796.795 185.83 817.255 185.14 829.805 197.04C829.856 197.09 829.897 197.15 829.925 197.216C829.953 197.281 829.967 197.352 829.967 197.423C829.967 197.494 829.953 197.564 829.925 197.629C829.897 197.694 829.856 197.752 829.805 197.8L827.055 200.35C826.781 200.61 826.501 200.617 826.215 200.37C807.845 184.55 781.125 198.08 783.445 222.24C784.011 228.2 786.881 233.51 792.055 238.17C799.285 244.7 809.635 245.95 818.605 242.3C827.025 238.873 832.155 232.207 833.995 222.3C834.009 222.223 834.007 222.144 833.988 222.069C833.968 221.993 833.933 221.923 833.883 221.863C833.833 221.802 833.771 221.754 833.7 221.721C833.63 221.687 833.553 221.67 833.475 221.67Z" fill="#EAAD67"/>
</svg>
