<svg width="503" height="1141" viewBox="0 0 503 1141" fill="none" xmlns="http://www.w3.org/2000/svg">
<path fill-rule="evenodd" clip-rule="evenodd" d="M287.333 1009.35C208.877 1023.63 135.559 1046 116.03 1136.54C115.41 1139.3 116.341 1139.95 118.823 1138.48C178.963 1102.38 235.012 1061.76 286.971 1016.62C287.205 1016.42 287.464 1016.22 287.748 1016.02C345.177 1010.45 409.715 989.754 452.492 950.453C523.915 884.953 515.368 793.898 443.352 736.269C322.001 639.12 198.45 533.255 107.141 406.488C17.3543 281.752 95.8009 99.5564 189.565 2.66171C191.539 0.630732 191.398 0.461482 189.141 2.15397C119.75 54.3389 66.4363 118.851 29.2017 195.689C-65.7786 391.789 106.58 533.765 249.678 651.638C353.156 736.876 441.334 809.51 402.056 880.891C379.185 922.5 340.944 965.32 287.333 1009.35Z" fill="black"/>
<path d="M287.333 1009.35L287.512 1010.33L287.767 1010.29L287.968 1010.12L287.333 1009.35ZM116.03 1136.54L117.006 1136.76L117.008 1136.75L116.03 1136.54ZM118.823 1138.48L119.332 1139.34L119.338 1139.34L118.823 1138.48ZM286.971 1016.62L286.317 1015.87L286.316 1015.87L286.971 1016.62ZM287.748 1016.02L287.651 1015.02L287.385 1015.05L287.167 1015.2L287.748 1016.02ZM452.492 950.453L451.816 949.716L451.815 949.716L452.492 950.453ZM443.352 736.269L442.727 737.049L442.728 737.05L443.352 736.269ZM107.141 406.488L106.329 407.073L106.329 407.073L107.141 406.488ZM189.565 2.66171L188.848 1.96463L188.846 1.96631L189.565 2.66171ZM189.141 2.15397L188.541 1.35397L188.54 1.35475L189.141 2.15397ZM29.2017 195.689L28.3018 195.253L28.3017 195.254L29.2017 195.689ZM249.678 651.638L250.314 650.866L250.314 650.866L249.678 651.638ZM402.056 880.891L401.18 880.409L401.18 880.41L402.056 880.891ZM287.154 1008.37C247.916 1015.51 209.811 1024.7 179.062 1043.49C148.26 1062.32 124.877 1090.78 115.053 1136.33L117.008 1136.75C126.712 1091.75 149.753 1063.76 180.106 1045.2C210.512 1026.61 248.294 1017.47 287.512 1010.33L287.154 1008.37ZM115.055 1136.32C114.89 1137.05 114.808 1137.73 114.86 1138.3C114.912 1138.87 115.114 1139.52 115.691 1139.92C116.261 1140.31 116.932 1140.29 117.485 1140.16C118.051 1140.02 118.673 1139.73 119.332 1139.34L118.314 1137.62C117.732 1137.97 117.307 1138.15 117.019 1138.21C116.719 1138.29 116.731 1138.2 116.835 1138.28C116.947 1138.35 116.878 1138.41 116.852 1138.12C116.827 1137.85 116.861 1137.4 117.006 1136.76L115.055 1136.32ZM119.338 1139.34C179.526 1103.21 235.623 1062.55 287.627 1017.38L286.316 1015.87C234.401 1060.96 178.399 1101.55 118.308 1137.63L119.338 1139.34ZM287.625 1017.38C287.833 1017.2 288.067 1017.02 288.328 1016.83L287.167 1015.2C286.861 1015.42 286.577 1015.64 286.317 1015.87L287.625 1017.38ZM287.844 1017.01C345.398 1011.43 410.175 990.69 453.168 951.189L451.815 949.716C409.255 988.819 344.956 1009.47 287.651 1015.02L287.844 1017.01ZM453.168 951.19C489.072 918.263 504.94 878.843 502.71 840.352C500.48 801.871 480.171 764.451 443.977 735.488L442.728 737.05C478.549 765.715 498.521 802.638 500.713 840.467C502.904 878.286 487.334 917.143 451.816 949.716L453.168 951.19ZM443.977 735.488C322.632 638.344 199.175 532.551 107.952 405.904L106.329 407.073C197.725 533.96 321.371 639.897 442.727 737.049L443.977 735.488ZM107.952 405.904C63.2938 343.862 60.4262 267.472 80.4857 194.399C100.546 121.323 143.507 51.6956 190.283 3.35711L188.846 1.96631C141.859 50.5225 98.7144 120.44 78.557 193.87C58.3989 267.302 61.2011 344.378 106.329 407.073L107.952 405.904ZM190.282 3.35879C190.779 2.84675 191.162 2.43315 191.417 2.12774C191.54 1.98031 191.659 1.8269 191.747 1.68373C191.787 1.61833 191.853 1.50238 191.897 1.35859C191.918 1.28977 192.07 0.805633 191.708 0.371366C191.333 -0.0779432 190.813 0.00119913 190.734 0.0136517C190.58 0.037695 190.453 0.0899238 190.383 0.120737C190.229 0.188828 190.062 0.287553 189.901 0.389609C189.567 0.601524 189.11 0.927283 188.541 1.35397L189.741 2.95396C190.301 2.53441 190.708 2.24664 190.973 2.07775C191.038 2.03654 191.09 2.00548 191.13 1.98295C191.149 1.9718 191.165 1.96362 191.176 1.95785C191.187 1.95196 191.192 1.94972 191.192 1.94994C191.192 1.95013 191.189 1.9513 191.184 1.95316C191.18 1.95498 191.172 1.95791 191.161 1.9614C191.144 1.96733 191.102 1.98038 191.043 1.98959C190.991 1.99782 190.876 2.01105 190.73 1.98291C190.573 1.95254 190.35 1.86599 190.171 1.65171C189.995 1.4403 189.952 1.2112 189.947 1.0637C189.943 0.9242 189.971 0.819253 189.985 0.771589C190.002 0.718122 190.019 0.681259 190.027 0.665901C190.031 0.656842 190.035 0.650306 190.037 0.646545C190.038 0.64459 190.039 0.643145 190.039 0.64223C190.04 0.641314 190.04 0.640839 190.04 0.640825C190.04 0.640809 190.04 0.641182 190.039 0.641959C190.039 0.642735 190.038 0.643857 190.037 0.645338C190.035 0.648335 190.032 0.652507 190.029 0.657921C190.021 0.668902 190.011 0.683507 189.997 0.702057C189.968 0.739551 189.93 0.787631 189.881 0.847367C189.677 1.09201 189.337 1.46118 188.848 1.96463L190.282 3.35879ZM188.54 1.35475C119.024 53.6336 65.607 118.269 28.3018 195.253L30.1016 196.126C67.2657 119.432 120.475 55.0442 189.742 2.95319L188.54 1.35475ZM28.3017 195.254C-19.3751 293.689 0.0731405 378.583 49.3248 453.548C98.5282 528.439 177.523 593.498 249.042 652.41L250.314 650.866C178.735 591.905 100.002 527.04 50.9963 452.45C2.03921 377.933 -17.2017 293.79 30.1017 196.125L28.3017 195.254ZM249.042 652.41C300.812 695.054 348.629 734.449 378.618 772.084C408.603 809.713 420.521 845.259 401.18 880.409L402.932 881.374C422.868 845.142 410.337 808.68 380.183 770.838C350.033 733.001 302.023 693.46 250.314 650.866L249.042 652.41ZM401.18 880.41C378.391 921.868 340.252 964.594 286.698 1008.58L287.968 1010.12C341.636 966.046 379.979 923.132 402.932 881.373L401.18 880.41Z" fill="black"/>
</svg>
