<svg width="176" height="288" viewBox="0 0 176 288" fill="none" xmlns="http://www.w3.org/2000/svg">
<path d="M175.525 8.07276C175.525 5.95675 174.684 3.92742 173.188 2.43117C171.692 0.934931 169.663 0.0943498 167.547 0.0943498H127.655C107.567 -0.906288 87.8997 6.0844 72.9501 19.539C58.0006 32.9936 48.984 51.8183 47.8705 71.9V114.983H7.97841C5.8624 114.983 3.83307 115.824 2.33682 117.32C0.840582 118.817 0 120.846 0 122.962V164.45C0 166.566 0.840582 168.595 2.33682 170.091C3.83307 171.587 5.8624 172.428 7.97841 172.428H47.8705V279.339C47.8705 281.455 48.711 283.484 50.2073 284.98C51.7035 286.477 53.7329 287.317 55.8489 287.317H103.719C105.835 287.317 107.865 286.477 109.361 284.98C110.857 283.484 111.698 281.455 111.698 279.339V172.428H153.505C155.279 172.453 157.011 171.887 158.427 170.818C159.843 169.748 160.862 168.237 161.323 166.524L172.812 125.036C173.13 123.857 173.172 122.621 172.937 121.423C172.702 120.226 172.195 119.098 171.455 118.126C170.715 117.155 169.762 116.367 168.669 115.822C167.577 115.277 166.374 114.99 165.153 114.983H111.698V71.9C112.095 67.9504 113.949 64.2904 116.9 61.6349C119.851 58.9794 123.685 57.519 127.655 57.5389H167.547C169.663 57.5389 171.692 56.6983 173.188 55.2021C174.684 53.7058 175.525 51.6765 175.525 49.5605V8.07276Z" fill="white"/>
</svg>
